<svg width="220" height="73" viewBox="0 0 220 73" fill="none" xmlns="http://www.w3.org/2000/svg">
<path d="M78.9545 58.6179C76.8665 58.6179 75.0057 58.2557 73.3722 57.5312C71.7386 56.7926 70.446 55.706 69.4943 54.2713C68.5568 52.8224 68.0881 51.0185 68.0881 48.8594C68.0881 47.0412 68.4219 45.5142 69.0895 44.2784C69.7571 43.0426 70.6662 42.0483 71.8168 41.2955C72.9673 40.5426 74.2741 39.9744 75.7372 39.5909C77.2145 39.2074 78.7628 38.9375 80.3821 38.7812C82.2855 38.5824 83.8196 38.3977 84.9844 38.2273C86.1491 38.0426 86.9943 37.7727 87.5199 37.4176C88.0455 37.0625 88.3082 36.5369 88.3082 35.8409V35.7131C88.3082 34.3636 87.8821 33.3196 87.0298 32.581C86.1918 31.8423 84.9986 31.473 83.4503 31.473C81.8168 31.473 80.517 31.8352 79.5511 32.5597C78.5852 33.2699 77.946 34.1648 77.6335 35.2443L69.2386 34.5625C69.6648 32.5739 70.5028 30.8551 71.7528 29.4062C73.0028 27.9432 74.6151 26.821 76.5895 26.0398C78.5781 25.2443 80.8793 24.8466 83.4929 24.8466C85.3111 24.8466 87.0511 25.0597 88.7131 25.4858C90.3892 25.9119 91.8736 26.5724 93.1662 27.4673C94.473 28.3622 95.5028 29.5128 96.2557 30.919C97.0085 32.3111 97.3849 33.9801 97.3849 35.9261V58H88.777V53.4616H88.5213C87.9957 54.4844 87.2926 55.3864 86.4119 56.1676C85.5312 56.9347 84.473 57.5384 83.2372 57.9787C82.0014 58.4048 80.5739 58.6179 78.9545 58.6179ZM81.554 52.3537C82.8892 52.3537 84.0682 52.0909 85.0909 51.5653C86.1136 51.0256 86.9162 50.3011 87.4986 49.392C88.081 48.483 88.3722 47.4531 88.3722 46.3026V42.8295C88.0881 43.0142 87.6974 43.1847 87.2003 43.3409C86.7173 43.483 86.1705 43.6179 85.5597 43.7457C84.9489 43.8594 84.3381 43.9659 83.7273 44.0653C83.1165 44.1506 82.5625 44.2287 82.0653 44.2997C81 44.456 80.0696 44.7045 79.2741 45.0455C78.4787 45.3864 77.8608 45.848 77.4205 46.4304C76.9801 46.9986 76.7599 47.7088 76.7599 48.5611C76.7599 49.7969 77.2074 50.7415 78.1023 51.3949C79.0114 52.0341 80.1619 52.3537 81.554 52.3537ZM133.766 25.2727L122.325 58H112.097L100.656 25.2727H110.244L117.04 48.6889H117.381L124.157 25.2727H133.766ZM146.865 58.6179C144.777 58.6179 142.916 58.2557 141.282 57.5312C139.649 56.7926 138.356 55.706 137.404 54.2713C136.467 52.8224 135.998 51.0185 135.998 48.8594C135.998 47.0412 136.332 45.5142 137 44.2784C137.667 43.0426 138.576 42.0483 139.727 41.2955C140.877 40.5426 142.184 39.9744 143.647 39.5909C145.125 39.2074 146.673 38.9375 148.292 38.7812C150.196 38.5824 151.73 38.3977 152.895 38.2273C154.059 38.0426 154.904 37.7727 155.43 37.4176C155.956 37.0625 156.218 36.5369 156.218 35.8409V35.7131C156.218 34.3636 155.792 33.3196 154.94 32.581C154.102 31.8423 152.909 31.473 151.36 31.473C149.727 31.473 148.427 31.8352 147.461 32.5597C146.495 33.2699 145.856 34.1648 145.544 35.2443L137.149 34.5625C137.575 32.5739 138.413 30.8551 139.663 29.4062C140.913 27.9432 142.525 26.821 144.5 26.0398C146.488 25.2443 148.789 24.8466 151.403 24.8466C153.221 24.8466 154.961 25.0597 156.623 25.4858C158.299 25.9119 159.784 26.5724 161.076 27.4673C162.383 28.3622 163.413 29.5128 164.166 30.919C164.919 32.3111 165.295 33.9801 165.295 35.9261V58H156.687V53.4616H156.431C155.906 54.4844 155.203 55.3864 154.322 56.1676C153.441 56.9347 152.383 57.5384 151.147 57.9787C149.912 58.4048 148.484 58.6179 146.865 58.6179ZM149.464 52.3537C150.799 52.3537 151.978 52.0909 153.001 51.5653C154.024 51.0256 154.826 50.3011 155.409 49.392C155.991 48.483 156.282 47.4531 156.282 46.3026V42.8295C155.998 43.0142 155.608 43.1847 155.11 43.3409C154.627 43.483 154.081 43.6179 153.47 43.7457C152.859 43.8594 152.248 43.9659 151.637 44.0653C151.027 44.1506 150.473 44.2287 149.975 44.2997C148.91 44.456 147.98 44.7045 147.184 45.0455C146.389 45.3864 145.771 45.848 145.331 46.4304C144.89 46.9986 144.67 47.7088 144.67 48.5611C144.67 49.7969 145.118 50.7415 146.012 51.3949C146.922 52.0341 148.072 52.3537 149.464 52.3537ZM172.337 58V25.2727H181.414V58H172.337ZM176.897 21.054C175.547 21.054 174.39 20.6065 173.424 19.7116C172.472 18.8026 171.996 17.7159 171.996 16.4517C171.996 15.2017 172.472 14.1293 173.424 13.2344C174.39 12.3253 175.547 11.8707 176.897 11.8707C178.246 11.8707 179.397 12.3253 180.348 13.2344C181.314 14.1293 181.797 15.2017 181.797 16.4517C181.797 17.7159 181.314 18.8026 180.348 19.7116C179.397 20.6065 178.246 21.054 176.897 21.054ZM197.761 14.3636V58H188.685V14.3636H197.761ZM205.032 58V25.2727H214.109V58H205.032ZM209.592 21.054C208.243 21.054 207.085 20.6065 206.119 19.7116C205.167 18.8026 204.691 17.7159 204.691 16.4517C204.691 15.2017 205.167 14.1293 206.119 13.2344C207.085 12.3253 208.243 11.8707 209.592 11.8707C210.941 11.8707 212.092 12.3253 213.044 13.2344C214.01 14.1293 214.493 15.2017 214.493 16.4517C214.493 17.7159 214.01 18.8026 213.044 19.7116C212.092 20.6065 210.941 21.054 209.592 21.054Z" fill="url(#paint0_linear_213_16)"/>
<ellipse cx="25.3333" cy="41" rx="25.3333" ry="24" fill="url(#paint1_linear_213_16)"/>
<ellipse cx="25.6711" cy="41" rx="17.5644" ry="16.7671" fill="white"/>
<defs>
<linearGradient id="paint0_linear_213_16" x1="66" y1="36.5" x2="220" y2="36.5" gradientUnits="userSpaceOnUse">
<stop stop-color="#38B6FF"/>
<stop offset="1" stop-color="#5271FF"/>
</linearGradient>
<linearGradient id="paint1_linear_213_16" x1="25.3333" y1="17" x2="25.3333" y2="65" gradientUnits="userSpaceOnUse">
<stop stop-color="#38B6FF"/>
<stop offset="1" stop-color="#5271FF"/>
</linearGradient>
</defs>
</svg>
