<svg width="218" height="67" viewBox="0 0 218 67" fill="none" xmlns="http://www.w3.org/2000/svg">
<path d="M76.9545 58.6179C74.8665 58.6179 73.0057 58.2557 71.3722 57.5312C69.7386 56.7926 68.446 55.706 67.4943 54.2713C66.5568 52.8224 66.0881 51.0185 66.0881 48.8594C66.0881 47.0412 66.4219 45.5142 67.0895 44.2784C67.7571 43.0426 68.6662 42.0483 69.8168 41.2955C70.9673 40.5426 72.2741 39.9744 73.7372 39.5909C75.2145 39.2074 76.7628 38.9375 78.3821 38.7812C80.2855 38.5824 81.8196 38.3977 82.9844 38.2273C84.1491 38.0426 84.9943 37.7727 85.5199 37.4176C86.0455 37.0625 86.3082 36.5369 86.3082 35.8409V35.7131C86.3082 34.3636 85.8821 33.3196 85.0298 32.581C84.1918 31.8423 82.9986 31.473 81.4503 31.473C79.8168 31.473 78.517 31.8352 77.5511 32.5597C76.5852 33.2699 75.946 34.1648 75.6335 35.2443L67.2386 34.5625C67.6648 32.5739 68.5028 30.8551 69.7528 29.4062C71.0028 27.9432 72.6151 26.821 74.5895 26.0398C76.5781 25.2443 78.8793 24.8466 81.4929 24.8466C83.3111 24.8466 85.0511 25.0597 86.7131 25.4858C88.3892 25.9119 89.8736 26.5724 91.1662 27.4673C92.473 28.3622 93.5028 29.5128 94.2557 30.919C95.0085 32.3111 95.3849 33.9801 95.3849 35.9261V58H86.777V53.4616H86.5213C85.9957 54.4844 85.2926 55.3864 84.4119 56.1676C83.5312 56.9347 82.473 57.5384 81.2372 57.9787C80.0014 58.4048 78.5739 58.6179 76.9545 58.6179ZM79.554 52.3537C80.8892 52.3537 82.0682 52.0909 83.0909 51.5653C84.1136 51.0256 84.9162 50.3011 85.4986 49.392C86.081 48.483 86.3722 47.4531 86.3722 46.3026V42.8295C86.0881 43.0142 85.6974 43.1847 85.2003 43.3409C84.7173 43.483 84.1705 43.6179 83.5597 43.7457C82.9489 43.8594 82.3381 43.9659 81.7273 44.0653C81.1165 44.1506 80.5625 44.2287 80.0653 44.2997C79 44.456 78.0696 44.7045 77.2741 45.0455C76.4787 45.3864 75.8608 45.848 75.4205 46.4304C74.9801 46.9986 74.7599 47.7088 74.7599 48.5611C74.7599 49.7969 75.2074 50.7415 76.1023 51.3949C77.0114 52.0341 78.1619 52.3537 79.554 52.3537ZM131.766 25.2727L120.325 58H110.097L98.6555 25.2727H108.244L115.04 48.6889H115.381L122.157 25.2727H131.766ZM144.865 58.6179C142.777 58.6179 140.916 58.2557 139.282 57.5312C137.649 56.7926 136.356 55.706 135.404 54.2713C134.467 52.8224 133.998 51.0185 133.998 48.8594C133.998 47.0412 134.332 45.5142 135 44.2784C135.667 43.0426 136.576 42.0483 137.727 41.2955C138.877 40.5426 140.184 39.9744 141.647 39.5909C143.125 39.2074 144.673 38.9375 146.292 38.7812C148.196 38.5824 149.73 38.3977 150.895 38.2273C152.059 38.0426 152.904 37.7727 153.43 37.4176C153.956 37.0625 154.218 36.5369 154.218 35.8409V35.7131C154.218 34.3636 153.792 33.3196 152.94 32.581C152.102 31.8423 150.909 31.473 149.36 31.473C147.727 31.473 146.427 31.8352 145.461 32.5597C144.495 33.2699 143.856 34.1648 143.544 35.2443L135.149 34.5625C135.575 32.5739 136.413 30.8551 137.663 29.4062C138.913 27.9432 140.525 26.821 142.5 26.0398C144.488 25.2443 146.789 24.8466 149.403 24.8466C151.221 24.8466 152.961 25.0597 154.623 25.4858C156.299 25.9119 157.784 26.5724 159.076 27.4673C160.383 28.3622 161.413 29.5128 162.166 30.919C162.919 32.3111 163.295 33.9801 163.295 35.9261V58H154.687V53.4616H154.431C153.906 54.4844 153.203 55.3864 152.322 56.1676C151.441 56.9347 150.383 57.5384 149.147 57.9787C147.912 58.4048 146.484 58.6179 144.865 58.6179ZM147.464 52.3537C148.799 52.3537 149.978 52.0909 151.001 51.5653C152.024 51.0256 152.826 50.3011 153.409 49.392C153.991 48.483 154.282 47.4531 154.282 46.3026V42.8295C153.998 43.0142 153.608 43.1847 153.11 43.3409C152.627 43.483 152.081 43.6179 151.47 43.7457C150.859 43.8594 150.248 43.9659 149.637 44.0653C149.027 44.1506 148.473 44.2287 147.975 44.2997C146.91 44.456 145.98 44.7045 145.184 45.0455C144.389 45.3864 143.771 45.848 143.331 46.4304C142.89 46.9986 142.67 47.7088 142.67 48.5611C142.67 49.7969 143.118 50.7415 144.012 51.3949C144.922 52.0341 146.072 52.3537 147.464 52.3537ZM170.337 58V25.2727H179.414V58H170.337ZM174.897 21.054C173.547 21.054 172.39 20.6065 171.424 19.7116C170.472 18.8026 169.996 17.7159 169.996 16.4517C169.996 15.2017 170.472 14.1293 171.424 13.2344C172.39 12.3253 173.547 11.8707 174.897 11.8707C176.246 11.8707 177.397 12.3253 178.348 13.2344C179.314 14.1293 179.797 15.2017 179.797 16.4517C179.797 17.7159 179.314 18.8026 178.348 19.7116C177.397 20.6065 176.246 21.054 174.897 21.054ZM195.761 14.3636V58H186.685V14.3636H195.761ZM203.032 58V25.2727H212.109V58H203.032ZM207.592 21.054C206.243 21.054 205.085 20.6065 204.119 19.7116C203.167 18.8026 202.691 17.7159 202.691 16.4517C202.691 15.2017 203.167 14.1293 204.119 13.2344C205.085 12.3253 206.243 11.8707 207.592 11.8707C208.941 11.8707 210.092 12.3253 211.044 13.2344C212.01 14.1293 212.493 15.2017 212.493 16.4517C212.493 17.7159 212.01 18.8026 211.044 19.7116C210.092 20.6065 208.941 21.054 207.592 21.054Z" fill="url(#paint0_linear_228_12)"/>
<rect y="14" width="48.9184" height="45.3482" fill="url(#paint1_linear_228_12)"/>
<rect x="5.77356" y="21" width="37.5283" height="33" fill="white"/>
<path d="M33.5545 43.5029L40.8728 37.6669L38.4328 34.4875C37.3224 33.0426 35.6275 32.3334 33.953 32.4367C32.9137 32.5007 31.8803 32.8759 30.9978 33.581L27.8589 36.082L33.5545 43.5029ZM25.7769 53.1292L31.471 60.5517C33.6887 63.4433 37.0767 64.8585 40.4274 64.6519C46.2189 64.2948 50.7387 59.2153 50.4112 53.2181C50.2957 51.102 49.5676 49.0025 48.1916 47.2104L42.4992 39.791L25.7769 53.1292ZM25.7701 37.7502L22.6392 40.2524C20.3276 42.0942 19.9121 45.4856 21.7106 47.8273L24.1475 51.0086L31.4658 45.1727L25.7701 37.7502ZM23.6014 46.3164C22.6184 45.035 22.8395 43.1868 24.1135 42.1722L25.352 41.1826L28.099 44.7623L24.5688 47.5777L23.6014 46.3164ZM18.102 43.0174L13.9583 40.4354L14.869 38.9263L18.6346 41.2739C18.3943 41.8301 18.2162 42.4103 18.102 43.0174ZM19.5781 49.4591L16.0515 52.3102L14.9765 50.9283L18.6793 47.9294C18.9248 48.4655 19.2156 48.9808 19.5781 49.4591ZM18.167 46.4379L13.2184 46.7431L13.1221 44.9797L17.9574 44.6815C17.9691 45.2776 18.0301 45.8658 18.167 46.4379Z" fill="url(#paint2_linear_228_12)"/>
<defs>
<linearGradient id="paint0_linear_228_12" x1="64" y1="31" x2="218" y2="31" gradientUnits="userSpaceOnUse">
<stop stop-color="#38B6FF"/>
<stop offset="1" stop-color="#5271FF"/>
</linearGradient>
<linearGradient id="paint1_linear_228_12" x1="24.4592" y1="14" x2="24.4592" y2="59.3482" gradientUnits="userSpaceOnUse">
<stop stop-color="#38B6FF"/>
<stop offset="1" stop-color="#5271FF"/>
</linearGradient>
<linearGradient id="paint2_linear_228_12" x1="30.8672" y1="32.6269" x2="32.8707" y2="65.1179" gradientUnits="userSpaceOnUse">
<stop stop-color="#38B6FF"/>
<stop offset="1" stop-color="#5271FF"/>
</linearGradient>
</defs>
</svg>
