<svg width="985" height="200" viewBox="0 0 985 200" fill="none" xmlns="http://www.w3.org/2000/svg">
<ellipse cx="103.5" cy="51" rx="30.5" ry="28" fill="url(#paint0_linear_467_3)"/>
<path d="M105.904 43.4545V58H103.269V46.0185H103.184L99.782 48.1918V45.777L103.397 43.4545H105.904Z" fill="white"/>
<ellipse cx="361.5" cy="47" rx="30.5" ry="28" fill="url(#paint1_linear_467_3)"/>
<path d="M356.582 54V52.0966L361.631 47.1463C362.114 46.6586 362.517 46.2254 362.839 45.8466C363.161 45.4678 363.402 45.1009 363.563 44.7457C363.724 44.3906 363.805 44.0118 363.805 43.6094C363.805 43.1501 363.701 42.7571 363.492 42.4304C363.284 42.099 362.997 41.8433 362.633 41.6634C362.268 41.4834 361.854 41.3935 361.39 41.3935C360.912 41.3935 360.493 41.4929 360.133 41.6918C359.773 41.8859 359.494 42.1629 359.295 42.5227C359.101 42.8826 359.004 43.3111 359.004 43.8082H356.496C356.496 42.8849 356.707 42.0824 357.129 41.4006C357.55 40.7187 358.13 40.1908 358.869 39.8168C359.612 39.4427 360.464 39.2557 361.425 39.2557C362.401 39.2557 363.258 39.438 363.996 39.8026C364.735 40.1671 365.308 40.6667 365.715 41.3011C366.127 41.9356 366.333 42.66 366.333 43.4744C366.333 44.0189 366.229 44.554 366.021 45.0795C365.812 45.6051 365.445 46.1875 364.92 46.8267C364.399 47.4659 363.667 48.2401 362.725 49.1491L360.218 51.6989V51.7983H366.553V54H356.582Z" fill="white"/>
<line x1="322" y1="47.75" x2="142.99" y2="47.75" stroke="#D5D5D5"/>
<path d="M770.904 4.45455V19H768.269V7.01847H768.184L764.782 9.19176V6.77699L768.397 4.45455H770.904Z" fill="white"/>
<ellipse cx="887.51" cy="44" rx="30.5" ry="28" fill="url(#paint2_linear_467_3)"/>
<path d="M881.88 48.3011V46.206L888.052 36.4545H889.799V39.4375H888.734L884.579 46.0213V46.1349H893.194V48.3011H881.88ZM888.819 51V47.6619L888.847 46.7244V36.4545H891.333V51H888.819Z" fill="white"/>
<line x1="845.011" y1="48.5" x2="666" y2="48.5" stroke="#D5D5D5"/>
<ellipse cx="624.51" cy="47" rx="30.5" ry="28" fill="url(#paint3_linear_467_3)"/>
<path d="M624.509 54.1989C623.487 54.1989 622.578 54.0237 621.782 53.6733C620.991 53.3229 620.366 52.8352 619.907 52.2102C619.448 51.5852 619.204 50.8632 619.176 50.044H621.846C621.87 50.437 622 50.7803 622.237 51.0739C622.473 51.3627 622.788 51.5876 623.181 51.7486C623.574 51.9096 624.015 51.9901 624.502 51.9901C625.023 51.9901 625.485 51.9001 625.887 51.7202C626.29 51.5355 626.605 51.2798 626.832 50.9531C627.059 50.6264 627.17 50.25 627.166 49.8239C627.17 49.3835 627.057 48.9953 626.825 48.6591C626.593 48.3229 626.257 48.0601 625.816 47.8707C625.381 47.6813 624.855 47.5866 624.239 47.5866H622.954V45.5554H624.239C624.746 45.5554 625.189 45.4678 625.568 45.2926C625.951 45.1174 626.252 44.8712 626.47 44.554C626.687 44.232 626.794 43.8603 626.789 43.4389C626.794 43.027 626.702 42.6695 626.512 42.3665C626.328 42.0587 626.065 41.8196 625.724 41.6491C625.388 41.4787 624.992 41.3935 624.538 41.3935C624.093 41.3935 623.681 41.474 623.302 41.6349C622.923 41.7959 622.618 42.0256 622.386 42.3239C622.154 42.6174 622.031 42.9678 622.016 43.375H619.481C619.5 42.5606 619.734 41.8456 620.184 41.2301C620.639 40.6098 621.245 40.1269 622.002 39.7812C622.76 39.4309 623.61 39.2557 624.552 39.2557C625.523 39.2557 626.365 39.438 627.08 39.8026C627.8 40.1624 628.356 40.6477 628.749 41.2585C629.142 41.8693 629.339 42.544 629.339 43.2827C629.344 44.1018 629.102 44.7884 628.614 45.3423C628.132 45.8963 627.497 46.2585 626.711 46.429V46.5426C627.734 46.6847 628.517 47.0634 629.062 47.679C629.611 48.2898 629.883 49.0497 629.879 49.9588C629.879 50.7732 629.647 51.5024 629.183 52.1463C628.723 52.7855 628.089 53.2874 627.279 53.652C626.474 54.0166 625.551 54.1989 624.509 54.1989Z" fill="white"/>
<line x1="585.011" y1="47.75" x2="406" y2="47.75" stroke="#D5D5D5"/>
<g clip-path="url(#clip0_467_3)">
<path d="M119 151.167H111V143.333H119V151.167ZM107 131.583H99V139.417H107V131.583ZM119 131.583H111V139.417H119V131.583ZM95 143.333H87V151.167H95V143.333ZM107 143.333H99V151.167H107V143.333ZM95 131.583H87V139.417H95V131.583ZM127 115.917V159H79V115.917H85V117.875C85 120.035 86.794 121.792 89 121.792C91.206 121.792 93 120.035 93 117.875V115.917H113V117.875C113 120.035 114.794 121.792 117 121.792C119.206 121.792 121 120.035 121 117.875V115.917H127ZM123 127.667H83V155.083H123V127.667ZM119 113.958C119 112.877 118.106 112 117 112C115.894 112 115 112.877 115 113.958V117.875C115 118.956 115.894 119.833 117 119.833C118.106 119.833 119 118.956 119 117.875V113.958ZM91 117.875C91 118.956 90.106 119.833 89 119.833C87.894 119.833 87 118.956 87 117.875V113.958C87 112.877 87.894 112 89 112C90.106 112 91 112.877 91 113.958V117.875Z" fill="black"/>
</g>
<path d="M40.7683 181.727C40.6958 181.116 40.402 180.641 39.8869 180.303C39.3717 179.964 38.7399 179.795 37.9913 179.795C37.444 179.795 36.965 179.884 36.5545 180.061C36.148 180.238 35.8301 180.482 35.6007 180.792C35.3753 181.101 35.2626 181.454 35.2626 181.848C35.2626 182.178 35.3411 182.462 35.498 182.699C35.659 182.933 35.8643 183.128 36.1138 183.285C36.3633 183.438 36.6249 183.565 36.8986 183.665C37.1723 183.762 37.4238 183.84 37.6532 183.901L38.9089 184.239C39.2309 184.323 39.5891 184.44 39.9835 184.589C40.3819 184.738 40.7623 184.941 41.1245 185.199C41.4907 185.452 41.7926 185.778 42.03 186.176C42.2675 186.575 42.3862 187.064 42.3862 187.643C42.3862 188.312 42.2111 188.915 41.861 189.455C41.5149 189.994 41.0078 190.422 40.3397 190.74C39.6756 191.058 38.8687 191.217 37.9189 191.217C37.0334 191.217 36.2667 191.074 35.6188 190.789C34.9748 190.503 34.4677 190.105 34.0975 189.593C33.7312 189.082 33.524 188.489 33.4757 187.812H35.0211C35.0614 188.279 35.2183 188.666 35.492 188.972C35.7697 189.273 36.1199 189.499 36.5424 189.648C36.969 189.793 37.4279 189.865 37.9189 189.865C38.4904 189.865 39.0035 189.772 39.4583 189.587C39.9131 189.398 40.2733 189.137 40.5389 188.803C40.8045 188.464 40.9373 188.07 40.9373 187.619C40.9373 187.209 40.8226 186.875 40.5932 186.617C40.3638 186.36 40.062 186.15 39.6877 185.989C39.3134 185.828 38.9089 185.687 38.4743 185.567L36.9529 185.132C35.987 184.854 35.2224 184.458 34.6589 183.943C34.0955 183.428 33.8137 182.754 33.8137 181.92C33.8137 181.228 34.0009 180.625 34.3752 180.109C34.7535 179.59 35.2606 179.188 35.8965 178.902C36.5364 178.612 37.2508 178.467 38.0396 178.467C38.8365 178.467 39.5448 178.61 40.1646 178.896C40.7844 179.178 41.2754 179.564 41.6376 180.055C42.0038 180.546 42.197 181.103 42.2172 181.727H40.7683ZM48.5423 191.193C47.6489 191.193 46.8782 190.996 46.2302 190.602C45.5863 190.203 45.0892 189.648 44.7391 188.935C44.393 188.219 44.2199 187.386 44.2199 186.436C44.2199 185.486 44.393 184.649 44.7391 183.925C45.0892 183.196 45.5762 182.629 46.2 182.222C46.8279 181.812 47.5603 181.607 48.3975 181.607C48.8804 181.607 49.3573 181.687 49.8282 181.848C50.2991 182.009 50.7277 182.271 51.1141 182.633C51.5004 182.991 51.8083 183.466 52.0377 184.058C52.2671 184.649 52.3818 185.378 52.3818 186.243V186.847H45.2341V185.615H50.933C50.933 185.092 50.8283 184.625 50.6191 184.214C50.4138 183.804 50.12 183.48 49.7377 183.243C49.3593 183.005 48.9126 182.886 48.3975 182.886C47.83 182.886 47.339 183.027 46.9244 183.309C46.5139 183.587 46.198 183.949 45.9767 184.396C45.7553 184.842 45.6446 185.321 45.6446 185.832V186.653C45.6446 187.354 45.7654 187.947 46.0068 188.434C46.2523 188.917 46.5924 189.286 47.0271 189.539C47.4617 189.789 47.9668 189.913 48.5423 189.913C48.9166 189.913 49.2547 189.861 49.5566 189.756C49.8624 189.648 50.126 189.487 50.3474 189.273C50.5687 189.056 50.7398 188.786 50.8605 188.464L52.237 188.851C52.0921 189.318 51.8486 189.728 51.5065 190.082C51.1644 190.433 50.7418 190.706 50.2387 190.903C49.7356 191.097 49.1702 191.193 48.5423 191.193ZM55.9738 178.636V191H54.5491V178.636H55.9738ZM62.4711 191.193C61.5776 191.193 60.8069 190.996 60.1589 190.602C59.515 190.203 59.0179 189.648 58.6678 188.935C58.3217 188.219 58.1486 187.386 58.1486 186.436C58.1486 185.486 58.3217 184.649 58.6678 183.925C59.0179 183.196 59.5049 182.629 60.1287 182.222C60.7566 181.812 61.4891 181.607 62.3262 181.607C62.8091 181.607 63.286 181.687 63.7569 181.848C64.2278 182.009 64.6564 182.271 65.0428 182.633C65.4292 182.991 65.737 183.466 65.9664 184.058C66.1958 184.649 66.3105 185.378 66.3105 186.243V186.847H59.1628V185.615H64.8617C64.8617 185.092 64.757 184.625 64.5478 184.214C64.3425 183.804 64.0487 183.48 63.6664 183.243C63.2881 183.005 62.8413 182.886 62.3262 182.886C61.7587 182.886 61.2677 183.027 60.8532 183.309C60.4426 183.587 60.1267 183.949 59.9054 184.396C59.684 184.842 59.5733 185.321 59.5733 185.832V186.653C59.5733 187.354 59.6941 187.947 59.9355 188.434C60.181 188.917 60.5211 189.286 60.9558 189.539C61.3904 189.789 61.8955 189.913 62.4711 189.913C62.8453 189.913 63.1834 189.861 63.4853 189.756C63.7911 189.648 64.0547 189.487 64.2761 189.273C64.4975 189.056 64.6685 188.786 64.7892 188.464L66.1657 188.851C66.0208 189.318 65.7773 189.728 65.4352 190.082C65.0931 190.433 64.6705 190.706 64.1674 190.903C63.6644 191.097 63.0989 191.193 62.4711 191.193ZM72.2449 191.193C71.3755 191.193 70.627 190.988 69.9991 190.577C69.3713 190.167 68.8883 189.601 68.5502 188.881C68.2122 188.161 68.0431 187.338 68.0431 186.412C68.0431 185.47 68.2162 184.639 68.5623 183.919C68.9125 183.194 69.3994 182.629 70.0233 182.222C70.6511 181.812 71.3836 181.607 72.2207 181.607C72.8727 181.607 73.4603 181.727 73.9835 181.969C74.5067 182.21 74.9353 182.548 75.2694 182.983C75.6034 183.418 75.8107 183.925 75.8912 184.504H74.4664C74.3578 184.082 74.1163 183.707 73.742 183.381C73.3717 183.051 72.8727 182.886 72.2449 182.886C71.6895 182.886 71.2025 183.031 70.7839 183.321C70.3694 183.607 70.0454 184.011 69.812 184.534C69.5826 185.054 69.4679 185.663 69.4679 186.364C69.4679 187.08 69.5806 187.704 69.8059 188.235C70.0353 188.766 70.3573 189.179 70.7718 189.473C71.1904 189.766 71.6814 189.913 72.2449 189.913C72.6151 189.913 72.9512 189.849 73.253 189.72C73.5549 189.591 73.8104 189.406 74.0197 189.165C74.229 188.923 74.3779 188.634 74.4664 188.295H75.8912C75.8107 188.843 75.6114 189.336 75.2935 189.775C74.9796 190.209 74.563 190.555 74.0439 190.813C73.5287 191.066 72.929 191.193 72.2449 191.193ZM82.0066 181.727V182.935H77.2012V181.727H82.0066ZM78.6017 179.506H80.0265V188.344C80.0265 188.746 80.0848 189.048 80.2015 189.249C80.3223 189.446 80.4752 189.579 80.6603 189.648C80.8495 189.712 81.0487 189.744 81.258 189.744C81.415 189.744 81.5437 189.736 81.6444 189.72C81.745 189.7 81.8255 189.684 81.8858 189.672L82.1756 190.952C82.079 190.988 81.9442 191.024 81.7711 191.06C81.5981 191.101 81.3787 191.121 81.1131 191.121C80.7106 191.121 80.3162 191.034 79.9299 190.861C79.5475 190.688 79.2296 190.424 78.976 190.07C78.7265 189.716 78.6017 189.269 78.6017 188.73V179.506ZM87.9379 191.193C87.0444 191.193 86.2737 190.996 85.6257 190.602C84.9818 190.203 84.4847 189.648 84.1346 188.935C83.7885 188.219 83.6154 187.386 83.6154 186.436C83.6154 185.486 83.7885 184.649 84.1346 183.925C84.4847 183.196 84.9717 182.629 85.5955 182.222C86.2234 181.812 86.9558 181.607 87.793 181.607C88.2759 181.607 88.7528 181.687 89.2237 181.848C89.6946 182.009 90.1232 182.271 90.5096 182.633C90.896 182.991 91.2038 183.466 91.4332 184.058C91.6626 184.649 91.7773 185.378 91.7773 186.243V186.847H84.6296V185.615H90.3285C90.3285 185.092 90.2238 184.625 90.0146 184.214C89.8093 183.804 89.5155 183.48 89.1332 183.243C88.7549 183.005 88.3081 182.886 87.793 182.886C87.2255 182.886 86.7345 183.027 86.32 183.309C85.9094 183.587 85.5935 183.949 85.3722 184.396C85.1508 184.842 85.0401 185.321 85.0401 185.832V186.653C85.0401 187.354 85.1609 187.947 85.4023 188.434C85.6478 188.917 85.9879 189.286 86.4226 189.539C86.8572 189.789 87.3623 189.913 87.9379 189.913C88.3121 189.913 88.6502 189.861 88.9521 189.756C89.2579 189.648 89.5215 189.487 89.7429 189.273C89.9643 189.056 90.1353 188.786 90.256 188.464L91.6325 188.851C91.4876 189.318 91.2441 189.728 90.902 190.082C90.5599 190.433 90.1373 190.706 89.6342 190.903C89.1312 191.097 88.5657 191.193 87.9379 191.193ZM97.8324 191.193C96.9389 191.193 96.1682 190.996 95.5202 190.602C94.8763 190.203 94.3793 189.648 94.0291 188.935C93.683 188.219 93.5099 187.386 93.5099 186.436C93.5099 185.486 93.683 184.649 94.0291 183.925C94.3793 183.196 94.8662 182.629 95.4901 182.222C96.1179 181.812 96.8504 181.607 97.6875 181.607C98.1705 181.607 98.6474 181.687 99.1183 181.848C99.5891 182.009 100.018 182.271 100.404 182.633C100.79 182.991 101.098 183.466 101.328 184.058C101.557 184.649 101.672 185.378 101.672 186.243V186.847H94.5241V185.615H100.223C100.223 185.092 100.118 184.625 99.9091 184.214C99.7038 183.804 99.41 183.48 99.0277 183.243C98.6494 183.005 98.2027 182.886 97.6875 182.886C97.12 182.886 96.629 183.027 96.2145 183.309C95.804 183.587 95.488 183.949 95.2667 184.396C95.0453 184.842 94.9347 185.321 94.9347 185.832V186.653C94.9347 187.354 95.0554 187.947 95.2969 188.434C95.5424 188.917 95.8825 189.286 96.3171 189.539C96.7518 189.789 97.2569 189.913 97.8324 189.913C98.2067 189.913 98.5447 189.861 98.8466 189.756C99.1525 189.648 99.4161 189.487 99.6374 189.273C99.8588 189.056 100.03 188.786 100.151 188.464L101.527 188.851C101.382 189.318 101.139 189.728 100.797 190.082C100.454 190.433 100.032 190.706 99.5288 190.903C99.0257 191.097 98.4602 191.193 97.8324 191.193ZM103.839 191V181.727H105.216V183.128H105.312C105.481 182.669 105.787 182.297 106.23 182.011C106.672 181.725 107.172 181.582 107.727 181.582C107.832 181.582 107.962 181.584 108.119 181.588C108.276 181.592 108.395 181.598 108.475 181.607V183.055C108.427 183.043 108.317 183.025 108.143 183.001C107.974 182.973 107.795 182.959 107.606 182.959C107.155 182.959 106.753 183.053 106.399 183.243C106.049 183.428 105.771 183.685 105.566 184.015C105.364 184.341 105.264 184.714 105.264 185.132V191H103.839ZM118.447 191.193C117.674 191.193 116.992 190.998 116.4 190.608C115.809 190.213 115.346 189.658 115.012 188.941C114.678 188.221 114.511 187.37 114.511 186.388C114.511 185.414 114.678 184.569 115.012 183.852C115.346 183.136 115.811 182.583 116.407 182.192C117.002 181.802 117.69 181.607 118.471 181.607C119.075 181.607 119.552 181.707 119.902 181.908C120.256 182.106 120.526 182.331 120.711 182.585C120.9 182.834 121.047 183.039 121.152 183.2H121.272V178.636H122.697V191H121.321V189.575H121.152C121.047 189.744 120.898 189.958 120.705 190.215C120.512 190.469 120.236 190.696 119.878 190.897C119.52 191.095 119.043 191.193 118.447 191.193ZM118.64 189.913C119.212 189.913 119.695 189.764 120.089 189.467C120.483 189.165 120.783 188.748 120.989 188.217C121.194 187.682 121.296 187.064 121.296 186.364C121.296 185.671 121.196 185.066 120.995 184.547C120.793 184.023 120.496 183.617 120.101 183.327C119.707 183.033 119.22 182.886 118.64 182.886C118.036 182.886 117.533 183.041 117.131 183.351C116.733 183.657 116.433 184.074 116.231 184.601C116.034 185.124 115.936 185.712 115.936 186.364C115.936 187.024 116.036 187.623 116.237 188.163C116.443 188.698 116.745 189.125 117.143 189.442C117.545 189.756 118.045 189.913 118.64 189.913ZM128.233 191.217C127.645 191.217 127.112 191.107 126.633 190.885C126.154 190.66 125.774 190.336 125.492 189.913C125.21 189.487 125.07 188.972 125.07 188.368C125.07 187.837 125.174 187.406 125.383 187.076C125.593 186.742 125.872 186.48 126.223 186.291C126.573 186.102 126.959 185.961 127.382 185.869C127.808 185.772 128.237 185.696 128.668 185.639C129.231 185.567 129.688 185.512 130.038 185.476C130.392 185.436 130.65 185.37 130.811 185.277C130.976 185.184 131.058 185.023 131.058 184.794V184.746C131.058 184.15 130.895 183.687 130.569 183.357C130.247 183.027 129.758 182.862 129.102 182.862C128.422 182.862 127.889 183.011 127.502 183.309C127.116 183.607 126.844 183.925 126.687 184.263L125.335 183.78C125.577 183.216 125.899 182.778 126.301 182.464C126.708 182.146 127.15 181.924 127.629 181.8C128.112 181.671 128.587 181.607 129.054 181.607C129.352 181.607 129.694 181.643 130.08 181.715C130.471 181.784 130.847 181.926 131.209 182.144C131.575 182.361 131.879 182.689 132.121 183.128C132.362 183.567 132.483 184.154 132.483 184.891V191H131.058V189.744H130.986C130.889 189.946 130.728 190.161 130.503 190.39C130.277 190.62 129.978 190.815 129.603 190.976C129.229 191.137 128.772 191.217 128.233 191.217ZM128.45 189.938C129.014 189.938 129.489 189.827 129.875 189.605C130.265 189.384 130.559 189.098 130.756 188.748C130.958 188.398 131.058 188.03 131.058 187.643V186.339C130.998 186.412 130.865 186.478 130.66 186.539C130.458 186.595 130.225 186.645 129.959 186.69C129.698 186.73 129.442 186.766 129.193 186.798C128.947 186.826 128.748 186.851 128.595 186.871C128.225 186.919 127.879 186.998 127.557 187.106C127.239 187.211 126.981 187.37 126.784 187.583C126.591 187.792 126.494 188.078 126.494 188.44C126.494 188.935 126.677 189.31 127.044 189.563C127.414 189.813 127.883 189.938 128.45 189.938ZM139.116 181.727V182.935H134.311V181.727H139.116ZM135.711 179.506H137.136V188.344C137.136 188.746 137.194 189.048 137.311 189.249C137.432 189.446 137.585 189.579 137.77 189.648C137.959 189.712 138.158 189.744 138.367 189.744C138.524 189.744 138.653 189.736 138.754 189.72C138.854 189.7 138.935 189.684 138.995 189.672L139.285 190.952C139.188 190.988 139.054 191.024 138.881 191.06C138.707 191.101 138.488 191.121 138.222 191.121C137.82 191.121 137.426 191.034 137.039 190.861C136.657 190.688 136.339 190.424 136.085 190.07C135.836 189.716 135.711 189.269 135.711 188.73V179.506ZM147.103 187.209V181.727H148.528V191H147.103V189.43H147.006C146.789 189.901 146.451 190.302 145.992 190.632C145.533 190.958 144.954 191.121 144.253 191.121C143.674 191.121 143.159 190.994 142.708 190.74C142.257 190.483 141.903 190.096 141.645 189.581C141.388 189.062 141.259 188.408 141.259 187.619V181.727H142.684V187.523C142.684 188.199 142.873 188.738 143.251 189.141C143.634 189.543 144.121 189.744 144.712 189.744C145.066 189.744 145.427 189.654 145.793 189.473C146.163 189.292 146.473 189.014 146.722 188.64C146.976 188.265 147.103 187.788 147.103 187.209ZM151.137 191V181.727H152.513V183.176H152.634C152.827 182.681 153.139 182.297 153.57 182.023C154.001 181.745 154.518 181.607 155.121 181.607C155.733 181.607 156.242 181.745 156.649 182.023C157.059 182.297 157.379 182.681 157.609 183.176H157.705C157.943 182.697 158.299 182.317 158.774 182.035C159.249 181.749 159.818 181.607 160.482 181.607C161.311 181.607 161.989 181.866 162.517 182.385C163.044 182.9 163.307 183.703 163.307 184.794V191H161.883V184.794C161.883 184.11 161.696 183.621 161.321 183.327C160.947 183.033 160.506 182.886 159.999 182.886C159.347 182.886 158.842 183.084 158.484 183.478C158.126 183.868 157.947 184.363 157.947 184.963V191H156.498V184.649C156.498 184.122 156.327 183.697 155.985 183.375C155.643 183.049 155.202 182.886 154.663 182.886C154.292 182.886 153.946 182.985 153.624 183.182C153.306 183.379 153.049 183.653 152.851 184.003C152.658 184.349 152.562 184.75 152.562 185.205V191H151.137ZM172.481 183.804L171.201 184.166C171.12 183.953 171.002 183.746 170.845 183.544C170.692 183.339 170.482 183.17 170.217 183.037C169.951 182.904 169.611 182.838 169.196 182.838C168.629 182.838 168.156 182.969 167.778 183.23C167.403 183.488 167.216 183.816 167.216 184.214C167.216 184.569 167.345 184.848 167.603 185.054C167.86 185.259 168.263 185.43 168.81 185.567L170.187 185.905C171.016 186.106 171.633 186.414 172.04 186.828C172.446 187.239 172.65 187.768 172.65 188.416C172.65 188.947 172.497 189.422 172.191 189.841C171.889 190.259 171.466 190.589 170.923 190.831C170.38 191.072 169.748 191.193 169.027 191.193C168.082 191.193 167.299 190.988 166.679 190.577C166.059 190.167 165.667 189.567 165.502 188.778L166.854 188.44C166.983 188.939 167.226 189.314 167.585 189.563C167.947 189.813 168.42 189.938 169.003 189.938C169.667 189.938 170.195 189.797 170.585 189.515C170.979 189.229 171.177 188.887 171.177 188.489C171.177 188.167 171.064 187.897 170.839 187.68C170.613 187.458 170.267 187.293 169.8 187.185L168.255 186.822C167.406 186.621 166.782 186.309 166.383 185.887C165.989 185.46 165.792 184.927 165.792 184.287C165.792 183.764 165.939 183.301 166.232 182.898C166.53 182.496 166.935 182.18 167.446 181.951C167.961 181.721 168.544 181.607 169.196 181.607C170.114 181.607 170.834 181.808 171.358 182.21C171.885 182.613 172.259 183.144 172.481 183.804Z" fill="black"/>
<path d="M286.429 178.636H288.216L292.418 188.899H292.563L296.765 178.636H298.551V191H297.151V181.607H297.03L293.167 191H291.814L287.951 181.607H287.83V191H286.429V178.636ZM304.089 191.217C303.501 191.217 302.968 191.107 302.489 190.885C302.01 190.66 301.63 190.336 301.348 189.913C301.066 189.487 300.925 188.972 300.925 188.368C300.925 187.837 301.03 187.406 301.239 187.076C301.449 186.742 301.728 186.48 302.079 186.291C302.429 186.102 302.815 185.961 303.238 185.869C303.664 185.772 304.093 185.696 304.523 185.639C305.087 185.567 305.544 185.512 305.894 185.476C306.248 185.436 306.506 185.37 306.667 185.277C306.832 185.184 306.914 185.023 306.914 184.794V184.746C306.914 184.15 306.751 183.687 306.425 183.357C306.103 183.027 305.614 182.862 304.958 182.862C304.278 182.862 303.745 183.011 303.358 183.309C302.972 183.607 302.7 183.925 302.543 184.263L301.191 183.78C301.433 183.216 301.755 182.778 302.157 182.464C302.563 182.146 303.006 181.924 303.485 181.8C303.968 181.671 304.443 181.607 304.91 181.607C305.208 181.607 305.55 181.643 305.936 181.715C306.327 181.784 306.703 181.926 307.065 182.144C307.431 182.361 307.735 182.689 307.977 183.128C308.218 183.567 308.339 184.154 308.339 184.891V191H306.914V189.744H306.842C306.745 189.946 306.584 190.161 306.359 190.39C306.133 190.62 305.833 190.815 305.459 190.976C305.085 191.137 304.628 191.217 304.089 191.217ZM304.306 189.938C304.87 189.938 305.345 189.827 305.731 189.605C306.121 189.384 306.415 189.098 306.612 188.748C306.813 188.398 306.914 188.03 306.914 187.643V186.339C306.854 186.412 306.721 186.478 306.516 186.539C306.314 186.595 306.081 186.645 305.815 186.69C305.554 186.73 305.298 186.766 305.049 186.798C304.803 186.826 304.604 186.851 304.451 186.871C304.081 186.919 303.735 186.998 303.413 187.106C303.095 187.211 302.837 187.37 302.64 187.583C302.447 187.792 302.35 188.078 302.35 188.44C302.35 188.935 302.533 189.31 302.9 189.563C303.27 189.813 303.739 189.938 304.306 189.938ZM313.668 191.217C313.08 191.217 312.547 191.107 312.068 190.885C311.589 190.66 311.209 190.336 310.927 189.913C310.645 189.487 310.505 188.972 310.505 188.368C310.505 187.837 310.609 187.406 310.818 187.076C311.028 186.742 311.307 186.48 311.658 186.291C312.008 186.102 312.394 185.961 312.817 185.869C313.243 185.772 313.672 185.696 314.103 185.639C314.666 185.567 315.123 185.512 315.473 185.476C315.827 185.436 316.085 185.37 316.246 185.277C316.411 185.184 316.493 185.023 316.493 184.794V184.746C316.493 184.15 316.33 183.687 316.004 183.357C315.682 183.027 315.193 182.862 314.537 182.862C313.857 182.862 313.324 183.011 312.937 183.309C312.551 183.607 312.279 183.925 312.122 184.263L310.77 183.78C311.012 183.216 311.334 182.778 311.736 182.464C312.143 182.146 312.585 181.924 313.064 181.8C313.547 181.671 314.022 181.607 314.489 181.607C314.787 181.607 315.129 181.643 315.515 181.715C315.906 181.784 316.282 181.926 316.644 182.144C317.01 182.361 317.314 182.689 317.556 183.128C317.797 183.567 317.918 184.154 317.918 184.891V191H316.493V189.744H316.421C316.324 189.946 316.163 190.161 315.938 190.39C315.712 190.62 315.413 190.815 315.038 190.976C314.664 191.137 314.207 191.217 313.668 191.217ZM313.885 189.938C314.449 189.938 314.924 189.827 315.31 189.605C315.7 189.384 315.994 189.098 316.191 188.748C316.393 188.398 316.493 188.03 316.493 187.643V186.339C316.433 186.412 316.3 186.478 316.095 186.539C315.894 186.595 315.66 186.645 315.394 186.69C315.133 186.73 314.877 186.766 314.628 186.798C314.382 186.826 314.183 186.851 314.03 186.871C313.66 186.919 313.314 186.998 312.992 187.106C312.674 187.211 312.416 187.37 312.219 187.583C312.026 187.792 311.929 188.078 311.929 188.44C311.929 188.935 312.112 189.31 312.479 189.563C312.849 189.813 313.318 189.938 313.885 189.938ZM321.846 187.619L321.822 185.857H322.112L326.169 181.727H327.932L323.609 186.098H323.489L321.846 187.619ZM320.518 191V178.636H321.943V191H320.518ZM326.41 191L322.788 186.412L323.802 185.422L328.221 191H326.41ZM338.434 191.193C337.541 191.193 336.77 190.996 336.122 190.602C335.478 190.203 334.981 189.648 334.631 188.935C334.285 188.219 334.112 187.386 334.112 186.436C334.112 185.486 334.285 184.649 334.631 183.925C334.981 183.196 335.468 182.629 336.092 182.222C336.72 181.812 337.452 181.607 338.29 181.607C338.773 181.607 339.249 181.687 339.72 181.848C340.191 182.009 340.62 182.271 341.006 182.633C341.393 182.991 341.7 183.466 341.93 184.058C342.159 184.649 342.274 185.378 342.274 186.243V186.847H335.126V185.615H340.825C340.825 185.092 340.72 184.625 340.511 184.214C340.306 183.804 340.012 183.48 339.63 183.243C339.251 183.005 338.805 182.886 338.29 182.886C337.722 182.886 337.231 183.027 336.817 183.309C336.406 183.587 336.09 183.949 335.869 184.396C335.647 184.842 335.537 185.321 335.537 185.832V186.653C335.537 187.354 335.657 187.947 335.899 188.434C336.144 188.917 336.485 189.286 336.919 189.539C337.354 189.789 337.859 189.913 338.434 189.913C338.809 189.913 339.147 189.861 339.449 189.756C339.755 189.648 340.018 189.487 340.239 189.273C340.461 189.056 340.632 188.786 340.753 188.464L342.129 188.851C341.984 189.318 341.741 189.728 341.399 190.082C341.056 190.433 340.634 190.706 340.131 190.903C339.628 191.097 339.062 191.193 338.434 191.193ZM345.866 185.422V191H344.441V181.727H345.818V183.176H345.938C346.156 182.705 346.486 182.327 346.928 182.041C347.371 181.751 347.943 181.607 348.643 181.607C349.271 181.607 349.82 181.735 350.291 181.993C350.762 182.246 351.128 182.633 351.39 183.152C351.651 183.667 351.782 184.319 351.782 185.108V191H350.357V185.205C350.357 184.476 350.168 183.909 349.79 183.502C349.412 183.092 348.892 182.886 348.232 182.886C347.778 182.886 347.371 182.985 347.013 183.182C346.659 183.379 346.379 183.667 346.174 184.045C345.969 184.424 345.866 184.883 345.866 185.422ZM360.712 194.477V189.575H360.591C360.487 189.744 360.338 189.958 360.145 190.215C359.952 190.469 359.676 190.696 359.318 190.897C358.96 191.095 358.483 191.193 357.887 191.193C357.114 191.193 356.432 190.998 355.84 190.608C355.249 190.213 354.786 189.658 354.452 188.941C354.118 188.221 353.951 187.37 353.951 186.388C353.951 185.414 354.118 184.569 354.452 183.852C354.786 183.136 355.251 182.583 355.846 182.192C356.442 181.802 357.13 181.607 357.911 181.607C358.515 181.607 358.992 181.707 359.342 181.908C359.696 182.106 359.966 182.331 360.151 182.585C360.34 182.834 360.487 183.039 360.591 183.2H360.761V181.727H362.137V194.477H360.712ZM358.08 189.913C358.652 189.913 359.135 189.764 359.529 189.467C359.923 189.165 360.223 188.748 360.428 188.217C360.634 187.682 360.736 187.064 360.736 186.364C360.736 185.671 360.636 185.066 360.435 184.547C360.233 184.023 359.935 183.617 359.541 183.327C359.147 183.033 358.66 182.886 358.08 182.886C357.476 182.886 356.973 183.041 356.571 183.351C356.172 183.657 355.873 184.074 355.671 184.601C355.474 185.124 355.376 185.712 355.376 186.364C355.376 187.024 355.476 187.623 355.677 188.163C355.883 188.698 356.185 189.125 356.583 189.442C356.985 189.756 357.484 189.913 358.08 189.913ZM370.589 187.209V181.727H372.013V191H370.589V189.43H370.492C370.275 189.901 369.937 190.302 369.478 190.632C369.019 190.958 368.439 191.121 367.739 191.121C367.16 191.121 366.645 190.994 366.194 190.74C365.743 190.483 365.389 190.096 365.131 189.581C364.874 189.062 364.745 188.408 364.745 187.619V181.727H366.17V187.523C366.17 188.199 366.359 188.738 366.737 189.141C367.119 189.543 367.606 189.744 368.198 189.744C368.552 189.744 368.912 189.654 369.279 189.473C369.649 189.292 369.959 189.014 370.208 188.64C370.462 188.265 370.589 187.788 370.589 187.209ZM378.511 191.193C377.617 191.193 376.846 190.996 376.198 190.602C375.555 190.203 375.057 189.648 374.707 188.935C374.361 188.219 374.188 187.386 374.188 186.436C374.188 185.486 374.361 184.649 374.707 183.925C375.057 183.196 375.544 182.629 376.168 182.222C376.796 181.812 377.529 181.607 378.366 181.607C378.849 181.607 379.326 181.687 379.796 181.848C380.267 182.009 380.696 182.271 381.082 182.633C381.469 182.991 381.777 183.466 382.006 184.058C382.235 184.649 382.35 185.378 382.35 186.243V186.847H375.202V185.615H380.901C380.901 185.092 380.797 184.625 380.587 184.214C380.382 183.804 380.088 183.48 379.706 183.243C379.328 183.005 378.881 182.886 378.366 182.886C377.798 182.886 377.307 183.027 376.893 183.309C376.482 183.587 376.166 183.949 375.945 184.396C375.724 184.842 375.613 185.321 375.613 185.832V186.653C375.613 187.354 375.734 187.947 375.975 188.434C376.221 188.917 376.561 189.286 376.995 189.539C377.43 189.789 377.935 189.913 378.511 189.913C378.885 189.913 379.223 189.861 379.525 189.756C379.831 189.648 380.094 189.487 380.316 189.273C380.537 189.056 380.708 188.786 380.829 188.464L382.205 188.851C382.06 189.318 381.817 189.728 381.475 190.082C381.133 190.433 380.71 190.706 380.207 190.903C379.704 191.097 379.138 191.193 378.511 191.193ZM379.549 180.616L378.293 178.926L377.038 180.616H375.685V180.52L377.641 178.009H378.945L380.901 180.52V180.616H379.549ZM388.55 181.727V182.935H383.745V181.727H388.55ZM385.145 179.506H386.57V188.344C386.57 188.746 386.628 189.048 386.745 189.249C386.866 189.446 387.019 189.579 387.204 189.648C387.393 189.712 387.592 189.744 387.801 189.744C387.958 189.744 388.087 189.736 388.188 189.72C388.288 189.7 388.369 189.684 388.429 189.672L388.719 190.952C388.622 190.988 388.488 191.024 388.315 191.06C388.142 191.101 387.922 191.121 387.657 191.121C387.254 191.121 386.86 191.034 386.473 190.861C386.091 190.688 385.773 190.424 385.519 190.07C385.27 189.716 385.145 189.269 385.145 188.73V179.506ZM394.481 191.193C393.588 191.193 392.817 190.996 392.169 190.602C391.525 190.203 391.028 189.648 390.678 188.935C390.332 188.219 390.159 187.386 390.159 186.436C390.159 185.486 390.332 184.649 390.678 183.925C391.028 183.196 391.515 182.629 392.139 182.222C392.767 181.812 393.499 181.607 394.336 181.607C394.819 181.607 395.296 181.687 395.767 181.848C396.238 182.009 396.667 182.271 397.053 182.633C397.439 182.991 397.747 183.466 397.977 184.058C398.206 184.649 398.321 185.378 398.321 186.243V186.847H391.173V185.615H396.872C396.872 185.092 396.767 184.625 396.558 184.214C396.353 183.804 396.059 183.48 395.677 183.243C395.298 183.005 394.852 182.886 394.336 182.886C393.769 182.886 393.278 183.027 392.863 183.309C392.453 183.587 392.137 183.949 391.916 184.396C391.694 184.842 391.584 185.321 391.584 185.832V186.653C391.584 187.354 391.704 187.947 391.946 188.434C392.191 188.917 392.531 189.286 392.966 189.539C393.401 189.789 393.906 189.913 394.481 189.913C394.856 189.913 395.194 189.861 395.496 189.756C395.801 189.648 396.065 189.487 396.286 189.273C396.508 189.056 396.679 188.786 396.799 188.464L398.176 188.851C398.031 189.318 397.788 189.728 397.445 190.082C397.103 190.433 396.681 190.706 396.178 190.903C395.675 191.097 395.109 191.193 394.481 191.193ZM407.998 191.217C407.41 191.217 406.877 191.107 406.398 190.885C405.919 190.66 405.539 190.336 405.257 189.913C404.976 189.487 404.835 188.972 404.835 188.368C404.835 187.837 404.939 187.406 405.149 187.076C405.358 186.742 405.638 186.48 405.988 186.291C406.338 186.102 406.724 185.961 407.147 185.869C407.573 185.772 408.002 185.696 408.433 185.639C408.996 185.567 409.453 185.512 409.803 185.476C410.157 185.436 410.415 185.37 410.576 185.277C410.741 185.184 410.823 185.023 410.823 184.794V184.746C410.823 184.15 410.66 183.687 410.334 183.357C410.012 183.027 409.523 182.862 408.867 182.862C408.187 182.862 407.654 183.011 407.268 183.309C406.881 183.607 406.61 183.925 406.453 184.263L405.1 183.78C405.342 183.216 405.664 182.778 406.066 182.464C406.473 182.146 406.915 181.924 407.394 181.8C407.877 181.671 408.352 181.607 408.819 181.607C409.117 181.607 409.459 181.643 409.845 181.715C410.236 181.784 410.612 181.926 410.974 182.144C411.34 182.361 411.644 182.689 411.886 183.128C412.127 183.567 412.248 184.154 412.248 184.891V191H410.823V189.744H410.751C410.654 189.946 410.493 190.161 410.268 190.39C410.043 190.62 409.743 190.815 409.368 190.976C408.994 191.137 408.537 191.217 407.998 191.217ZM408.215 189.938C408.779 189.938 409.254 189.827 409.64 189.605C410.03 189.384 410.324 189.098 410.521 188.748C410.723 188.398 410.823 188.03 410.823 187.643V186.339C410.763 186.412 410.63 186.478 410.425 186.539C410.224 186.595 409.99 186.645 409.725 186.69C409.463 186.73 409.207 186.766 408.958 186.798C408.712 186.826 408.513 186.851 408.36 186.871C407.99 186.919 407.644 186.998 407.322 187.106C407.004 187.211 406.746 187.37 406.549 187.583C406.356 187.792 406.259 188.078 406.259 188.44C406.259 188.935 406.442 189.31 406.809 189.563C407.179 189.813 407.648 189.938 408.215 189.938ZM417.577 191.217C416.99 191.217 416.456 191.107 415.977 190.885C415.498 190.66 415.118 190.336 414.836 189.913C414.555 189.487 414.414 188.972 414.414 188.368C414.414 187.837 414.518 187.406 414.728 187.076C414.937 186.742 415.217 186.48 415.567 186.291C415.917 186.102 416.303 185.961 416.726 185.869C417.153 185.772 417.581 185.696 418.012 185.639C418.575 185.567 419.032 185.512 419.382 185.476C419.736 185.436 419.994 185.37 420.155 185.277C420.32 185.184 420.402 185.023 420.402 184.794V184.746C420.402 184.15 420.239 183.687 419.913 183.357C419.591 183.027 419.102 182.862 418.446 182.862C417.766 182.862 417.233 183.011 416.847 183.309C416.46 183.607 416.189 183.925 416.032 184.263L414.679 183.78C414.921 183.216 415.243 182.778 415.645 182.464C416.052 182.146 416.494 181.924 416.973 181.8C417.456 181.671 417.931 181.607 418.398 181.607C418.696 181.607 419.038 181.643 419.424 181.715C419.815 181.784 420.191 181.926 420.553 182.144C420.92 182.361 421.223 182.689 421.465 183.128C421.706 183.567 421.827 184.154 421.827 184.891V191H420.402V189.744H420.33C420.233 189.946 420.072 190.161 419.847 190.39C419.622 190.62 419.322 190.815 418.947 190.976C418.573 191.137 418.116 191.217 417.577 191.217ZM417.794 189.938C418.358 189.938 418.833 189.827 419.219 189.605C419.61 189.384 419.903 189.098 420.101 188.748C420.302 188.398 420.402 188.03 420.402 187.643V186.339C420.342 186.412 420.209 186.478 420.004 186.539C419.803 186.595 419.569 186.645 419.304 186.69C419.042 186.73 418.787 186.766 418.537 186.798C418.291 186.826 418.092 186.851 417.939 186.871C417.569 186.919 417.223 186.998 416.901 187.106C416.583 187.211 416.325 187.37 416.128 187.583C415.935 187.792 415.838 188.078 415.838 188.44C415.838 188.935 416.022 189.31 416.388 189.563C416.758 189.813 417.227 189.938 417.794 189.938ZM425.852 185.422V191H424.428V181.727H425.804V183.176H425.925C426.142 182.705 426.472 182.327 426.915 182.041C427.357 181.751 427.929 181.607 428.629 181.607C429.257 181.607 429.806 181.735 430.277 181.993C430.748 182.246 431.114 182.633 431.376 183.152C431.638 183.667 431.768 184.319 431.768 185.108V191H430.344V185.205C430.344 184.476 430.155 183.909 429.776 183.502C429.398 183.092 428.879 182.886 428.219 182.886C427.764 182.886 427.357 182.985 426.999 183.182C426.645 183.379 426.365 183.667 426.16 184.045C425.955 184.424 425.852 184.883 425.852 185.422Z" fill="black"/>
<path d="M538.489 176.636L542.16 187.044H542.304L545.975 176.636H547.545L543.005 189H541.459L536.92 176.636H538.489ZM552.302 189.193C551.408 189.193 550.637 188.996 549.989 188.602C549.346 188.203 548.848 187.648 548.498 186.935C548.152 186.219 547.979 185.386 547.979 184.436C547.979 183.486 548.152 182.649 548.498 181.925C548.848 181.196 549.335 180.629 549.959 180.222C550.587 179.812 551.32 179.607 552.157 179.607C552.64 179.607 553.117 179.687 553.587 179.848C554.058 180.009 554.487 180.271 554.873 180.633C555.26 180.991 555.568 181.466 555.797 182.058C556.026 182.649 556.141 183.378 556.141 184.243V184.847H548.993V183.615H554.692C554.692 183.092 554.588 182.625 554.378 182.214C554.173 181.804 553.879 181.48 553.497 181.243C553.119 181.005 552.672 180.886 552.157 180.886C551.589 180.886 551.098 181.027 550.684 181.309C550.273 181.587 549.957 181.949 549.736 182.396C549.515 182.842 549.404 183.321 549.404 183.832V184.653C549.404 185.354 549.525 185.947 549.766 186.434C550.012 186.917 550.352 187.286 550.786 187.539C551.221 187.789 551.726 187.913 552.302 187.913C552.676 187.913 553.014 187.861 553.316 187.756C553.622 187.648 553.885 187.487 554.107 187.273C554.328 187.056 554.499 186.786 554.62 186.464L555.996 186.851C555.851 187.318 555.608 187.728 555.266 188.082C554.924 188.433 554.501 188.706 553.998 188.903C553.495 189.097 552.929 189.193 552.302 189.193ZM558.308 189V179.727H559.685V181.128H559.781C559.95 180.669 560.256 180.297 560.699 180.011C561.142 179.725 561.641 179.582 562.196 179.582C562.301 179.582 562.432 179.584 562.589 179.588C562.746 179.592 562.864 179.598 562.945 179.607V181.055C562.896 181.043 562.786 181.025 562.613 181.001C562.444 180.973 562.265 180.959 562.075 180.959C561.625 180.959 561.222 181.053 560.868 181.243C560.518 181.428 560.24 181.685 560.035 182.015C559.834 182.341 559.733 182.714 559.733 183.132V189H558.308ZM564.368 189V187.913L569.632 181.152V181.055H564.537V179.727H571.467V180.862L566.348 187.575V187.672H571.636V189H564.368ZM576.56 189.217C575.972 189.217 575.439 189.107 574.96 188.885C574.481 188.66 574.1 188.336 573.819 187.913C573.537 187.487 573.396 186.972 573.396 186.368C573.396 185.837 573.501 185.406 573.71 185.076C573.919 184.742 574.199 184.48 574.549 184.291C574.899 184.102 575.286 183.961 575.708 183.869C576.135 183.772 576.564 183.696 576.994 183.639C577.558 183.567 578.014 183.512 578.365 183.476C578.719 183.436 578.976 183.37 579.137 183.277C579.302 183.184 579.385 183.023 579.385 182.794V182.746C579.385 182.15 579.222 181.687 578.896 181.357C578.574 181.027 578.085 180.862 577.429 180.862C576.749 180.862 576.215 181.011 575.829 181.309C575.443 181.607 575.171 181.925 575.014 182.263L573.662 181.78C573.903 181.216 574.225 180.778 574.628 180.464C575.034 180.146 575.477 179.924 575.956 179.8C576.439 179.671 576.914 179.607 577.381 179.607C577.678 179.607 578.02 179.643 578.407 179.715C578.797 179.784 579.174 179.926 579.536 180.144C579.902 180.361 580.206 180.689 580.447 181.128C580.689 181.567 580.81 182.154 580.81 182.891V189H579.385V187.744H579.312C579.216 187.946 579.055 188.161 578.829 188.39C578.604 188.62 578.304 188.815 577.93 188.976C577.556 189.137 577.099 189.217 576.56 189.217ZM576.777 187.938C577.34 187.938 577.815 187.827 578.202 187.605C578.592 187.384 578.886 187.098 579.083 186.748C579.284 186.398 579.385 186.03 579.385 185.643V184.339C579.324 184.412 579.192 184.478 578.986 184.539C578.785 184.595 578.552 184.645 578.286 184.69C578.024 184.73 577.769 184.766 577.519 184.798C577.274 184.826 577.075 184.851 576.922 184.871C576.551 184.919 576.205 184.998 575.883 185.106C575.565 185.211 575.308 185.37 575.111 185.583C574.917 185.792 574.821 186.078 574.821 186.44C574.821 186.935 575.004 187.31 575.37 187.563C575.741 187.813 576.209 187.938 576.777 187.938ZM583.41 189V179.727H584.786V181.176H584.907C585.1 180.681 585.412 180.297 585.843 180.023C586.273 179.745 586.791 179.607 587.394 179.607C588.006 179.607 588.515 179.745 588.922 180.023C589.332 180.297 589.652 180.681 589.882 181.176H589.978C590.216 180.697 590.572 180.317 591.047 180.035C591.522 179.749 592.091 179.607 592.755 179.607C593.584 179.607 594.262 179.866 594.79 180.385C595.317 180.9 595.58 181.703 595.58 182.794V189H594.156V182.794C594.156 182.11 593.969 181.621 593.594 181.327C593.22 181.033 592.779 180.886 592.272 180.886C591.62 180.886 591.115 181.084 590.757 181.478C590.399 181.868 590.22 182.363 590.22 182.963V189H588.771V182.649C588.771 182.122 588.6 181.697 588.258 181.375C587.915 181.049 587.475 180.886 586.936 180.886C586.565 180.886 586.219 180.985 585.897 181.182C585.579 181.379 585.322 181.653 585.124 182.003C584.931 182.349 584.835 182.75 584.835 183.205V189H583.41ZM602.073 189.193C601.18 189.193 600.409 188.996 599.761 188.602C599.117 188.203 598.62 187.648 598.27 186.935C597.924 186.219 597.751 185.386 597.751 184.436C597.751 183.486 597.924 182.649 598.27 181.925C598.62 181.196 599.107 180.629 599.731 180.222C600.359 179.812 601.091 179.607 601.928 179.607C602.411 179.607 602.888 179.687 603.359 179.848C603.83 180.009 604.258 180.271 604.645 180.633C605.031 180.991 605.339 181.466 605.568 182.058C605.798 182.649 605.913 183.378 605.913 184.243V184.847H598.765V183.615H604.464C604.464 183.092 604.359 182.625 604.15 182.214C603.945 181.804 603.651 181.48 603.268 181.243C602.89 181.005 602.443 180.886 601.928 180.886C601.361 180.886 600.87 181.027 600.455 181.309C600.045 181.587 599.729 181.949 599.507 182.396C599.286 182.842 599.175 183.321 599.175 183.832V184.653C599.175 185.354 599.296 185.947 599.538 186.434C599.783 186.917 600.123 187.286 600.558 187.539C600.992 187.789 601.498 187.913 602.073 187.913C602.447 187.913 602.785 187.861 603.087 187.756C603.393 187.648 603.657 187.487 603.878 187.273C604.1 187.056 604.271 186.786 604.391 186.464L605.768 186.851C605.623 187.318 605.379 187.728 605.037 188.082C604.695 188.433 604.273 188.706 603.769 188.903C603.266 189.097 602.701 189.193 602.073 189.193ZM609.505 176.636V189H608.08V176.636H609.505ZM619.624 189.217C619.036 189.217 618.503 189.107 618.024 188.885C617.545 188.66 617.165 188.336 616.883 187.913C616.601 187.487 616.461 186.972 616.461 186.368C616.461 185.837 616.565 185.406 616.775 185.076C616.984 184.742 617.264 184.48 617.614 184.291C617.964 184.102 618.35 183.961 618.773 183.869C619.199 183.772 619.628 183.696 620.059 183.639C620.622 183.567 621.079 183.512 621.429 183.476C621.783 183.436 622.041 183.37 622.202 183.277C622.367 183.184 622.449 183.023 622.449 182.794V182.746C622.449 182.15 622.286 181.687 621.96 181.357C621.638 181.027 621.149 180.862 620.493 180.862C619.813 180.862 619.28 181.011 618.894 181.309C618.507 181.607 618.235 181.925 618.079 182.263L616.726 181.78C616.968 181.216 617.29 180.778 617.692 180.464C618.099 180.146 618.541 179.924 619.02 179.8C619.503 179.671 619.978 179.607 620.445 179.607C620.743 179.607 621.085 179.643 621.471 179.715C621.862 179.784 622.238 179.926 622.6 180.144C622.966 180.361 623.27 180.689 623.512 181.128C623.753 181.567 623.874 182.154 623.874 182.891V189H622.449V187.744H622.377C622.28 187.946 622.119 188.161 621.894 188.39C621.668 188.62 621.369 188.815 620.994 188.976C620.62 189.137 620.163 189.217 619.624 189.217ZM619.841 187.938C620.405 187.938 620.88 187.827 621.266 187.605C621.656 187.384 621.95 187.098 622.147 186.748C622.349 186.398 622.449 186.03 622.449 185.643V184.339C622.389 184.412 622.256 184.478 622.051 184.539C621.85 184.595 621.616 184.645 621.351 184.69C621.089 184.73 620.833 184.766 620.584 184.798C620.338 184.826 620.139 184.851 619.986 184.871C619.616 184.919 619.27 184.998 618.948 185.106C618.63 185.211 618.372 185.37 618.175 185.583C617.982 185.792 617.885 186.078 617.885 186.44C617.885 186.935 618.068 187.31 618.435 187.563C618.805 187.813 619.274 187.938 619.841 187.938ZM627.899 183.422V189H626.474V179.727H627.851V181.176H627.972C628.189 180.705 628.519 180.327 628.962 180.041C629.404 179.751 629.976 179.607 630.676 179.607C631.304 179.607 631.853 179.735 632.324 179.993C632.795 180.246 633.161 180.633 633.423 181.152C633.684 181.667 633.815 182.319 633.815 183.108V189H632.391V183.205C632.391 182.476 632.201 181.909 631.823 181.502C631.445 181.092 630.926 180.886 630.266 180.886C629.811 180.886 629.404 180.985 629.046 181.182C628.692 181.379 628.412 181.667 628.207 182.045C628.002 182.424 627.899 182.883 627.899 183.422ZM640.451 179.727V180.935H635.646V179.727H640.451ZM637.047 177.506H638.471V186.344C638.471 186.746 638.53 187.048 638.646 187.249C638.767 187.446 638.92 187.579 639.105 187.648C639.294 187.712 639.494 187.744 639.703 187.744C639.86 187.744 639.989 187.736 640.089 187.72C640.19 187.7 640.27 187.684 640.331 187.672L640.62 188.952C640.524 188.988 640.389 189.024 640.216 189.06C640.043 189.101 639.824 189.121 639.558 189.121C639.155 189.121 638.761 189.034 638.375 188.861C637.992 188.688 637.674 188.424 637.421 188.07C637.171 187.716 637.047 187.269 637.047 186.73V177.506ZM644.695 189L641.87 179.727H643.367L645.371 186.827H645.468L647.448 179.727H648.97L650.925 186.803H651.022L653.026 179.727H654.523L651.698 189H650.298L648.269 181.876H648.124L646.096 189H644.695ZM659.859 189.193C659.021 189.193 658.287 188.994 657.655 188.596C657.027 188.197 656.536 187.64 656.182 186.923C655.832 186.207 655.657 185.37 655.657 184.412C655.657 183.446 655.832 182.603 656.182 181.882C656.536 181.162 657.027 180.603 657.655 180.204C658.287 179.806 659.021 179.607 659.859 179.607C660.696 179.607 661.428 179.806 662.056 180.204C662.688 180.603 663.179 181.162 663.529 181.882C663.883 182.603 664.06 183.446 664.06 184.412C664.06 185.37 663.883 186.207 663.529 186.923C663.179 187.64 662.688 188.197 662.056 188.596C661.428 188.994 660.696 189.193 659.859 189.193ZM659.859 187.913C660.495 187.913 661.018 187.75 661.428 187.424C661.839 187.098 662.143 186.67 662.34 186.138C662.537 185.607 662.636 185.032 662.636 184.412C662.636 183.792 662.537 183.215 662.34 182.679C662.143 182.144 661.839 181.711 661.428 181.381C661.018 181.051 660.495 180.886 659.859 180.886C659.223 180.886 658.7 181.051 658.289 181.381C657.879 181.711 657.575 182.144 657.377 182.679C657.18 183.215 657.082 183.792 657.082 184.412C657.082 185.032 657.18 185.607 657.377 186.138C657.575 186.67 657.879 187.098 658.289 187.424C658.7 187.75 659.223 187.913 659.859 187.913ZM670.002 189.193C669.165 189.193 668.431 188.994 667.799 188.596C667.171 188.197 666.68 187.64 666.326 186.923C665.976 186.207 665.8 185.37 665.8 184.412C665.8 183.446 665.976 182.603 666.326 181.882C666.68 181.162 667.171 180.603 667.799 180.204C668.431 179.806 669.165 179.607 670.002 179.607C670.839 179.607 671.572 179.806 672.2 180.204C672.831 180.603 673.322 181.162 673.673 181.882C674.027 182.603 674.204 183.446 674.204 184.412C674.204 185.37 674.027 186.207 673.673 186.923C673.322 187.64 672.831 188.197 672.2 188.596C671.572 188.994 670.839 189.193 670.002 189.193ZM670.002 187.913C670.638 187.913 671.161 187.75 671.572 187.424C671.982 187.098 672.286 186.67 672.483 186.138C672.681 185.607 672.779 185.032 672.779 184.412C672.779 183.792 672.681 183.215 672.483 182.679C672.286 182.144 671.982 181.711 671.572 181.381C671.161 181.051 670.638 180.886 670.002 180.886C669.366 180.886 668.843 181.051 668.433 181.381C668.022 181.711 667.718 182.144 667.521 182.679C667.324 183.215 667.225 183.792 667.225 184.412C667.225 185.032 667.324 185.607 667.521 186.138C667.718 186.67 668.022 187.098 668.433 187.424C668.843 187.75 669.366 187.913 670.002 187.913ZM676.379 189V179.727H677.755V181.128H677.852C678.021 180.669 678.327 180.297 678.769 180.011C679.212 179.725 679.711 179.582 680.266 179.582C680.371 179.582 680.502 179.584 680.659 179.588C680.816 179.592 680.935 179.598 681.015 179.607V181.055C680.967 181.043 680.856 181.025 680.683 181.001C680.514 180.973 680.335 180.959 680.146 180.959C679.695 180.959 679.293 181.053 678.938 181.243C678.588 181.428 678.311 181.685 678.105 182.015C677.904 182.341 677.803 182.714 677.803 183.132V189H676.379ZM685.923 189.193C685.15 189.193 684.468 188.998 683.877 188.608C683.285 188.213 682.822 187.658 682.488 186.941C682.154 186.221 681.987 185.37 681.987 184.388C681.987 183.414 682.154 182.569 682.488 181.852C682.822 181.136 683.287 180.583 683.883 180.192C684.478 179.802 685.166 179.607 685.947 179.607C686.551 179.607 687.028 179.707 687.378 179.908C687.732 180.106 688.002 180.331 688.187 180.585C688.376 180.834 688.523 181.039 688.628 181.2H688.748V176.636H690.173V189H688.797V187.575H688.628C688.523 187.744 688.374 187.958 688.181 188.215C687.988 188.469 687.712 188.696 687.354 188.897C686.996 189.095 686.519 189.193 685.923 189.193ZM686.116 187.913C686.688 187.913 687.171 187.764 687.565 187.467C687.96 187.165 688.259 186.748 688.465 186.217C688.67 185.682 688.773 185.064 688.773 184.364C688.773 183.671 688.672 183.066 688.471 182.547C688.269 182.023 687.972 181.617 687.577 181.327C687.183 181.033 686.696 180.886 686.116 180.886C685.513 180.886 685.009 181.041 684.607 181.351C684.209 181.657 683.909 182.074 683.708 182.601C683.51 183.124 683.412 183.712 683.412 184.364C683.412 185.024 683.512 185.623 683.714 186.163C683.919 186.698 684.221 187.125 684.619 187.442C685.022 187.756 685.521 187.913 686.116 187.913ZM696.868 189.193C695.975 189.193 695.204 188.996 694.556 188.602C693.912 188.203 693.415 187.648 693.065 186.935C692.719 186.219 692.546 185.386 692.546 184.436C692.546 183.486 692.719 182.649 693.065 181.925C693.415 181.196 693.902 180.629 694.526 180.222C695.154 179.812 695.886 179.607 696.723 179.607C697.206 179.607 697.683 179.687 698.154 179.848C698.625 180.009 699.053 180.271 699.44 180.633C699.826 180.991 700.134 181.466 700.363 182.058C700.593 182.649 700.708 183.378 700.708 184.243V184.847H693.56V183.615H699.259C699.259 183.092 699.154 182.625 698.945 182.214C698.739 181.804 698.446 181.48 698.063 181.243C697.685 181.005 697.238 180.886 696.723 180.886C696.156 180.886 695.665 181.027 695.25 181.309C694.84 181.587 694.524 181.949 694.302 182.396C694.081 182.842 693.97 183.321 693.97 183.832V184.653C693.97 185.354 694.091 185.947 694.333 186.434C694.578 186.917 694.918 187.286 695.353 187.539C695.787 187.789 696.293 187.913 696.868 187.913C697.242 187.913 697.58 187.861 697.882 187.756C698.188 187.648 698.452 187.487 698.673 187.273C698.894 187.056 699.065 186.786 699.186 186.464L700.563 186.851C700.418 187.318 700.174 187.728 699.832 188.082C699.49 188.433 699.067 188.706 698.564 188.903C698.061 189.097 697.496 189.193 696.868 189.193ZM704.299 183.422V189H702.875V179.727H704.251V181.176H704.372C704.589 180.705 704.919 180.327 705.362 180.041C705.805 179.751 706.376 179.607 707.076 179.607C707.704 179.607 708.254 179.735 708.725 179.993C709.195 180.246 709.562 180.633 709.823 181.152C710.085 181.667 710.216 182.319 710.216 183.108V189H708.791V183.205C708.791 182.476 708.602 181.909 708.224 181.502C707.845 181.092 707.326 180.886 706.666 180.886C706.211 180.886 705.805 180.985 705.447 181.182C705.092 181.379 704.813 181.667 704.607 182.045C704.402 182.424 704.299 182.883 704.299 183.422Z" fill="black"/>
<path d="M832.51 180.5H831.013C830.924 180.069 830.769 179.691 830.548 179.365C830.331 179.039 830.065 178.765 829.751 178.544C829.441 178.319 829.097 178.15 828.719 178.037C828.34 177.924 827.946 177.868 827.536 177.868C826.787 177.868 826.109 178.057 825.501 178.435C824.897 178.814 824.416 179.371 824.058 180.108C823.704 180.844 823.527 181.748 823.527 182.818C823.527 183.889 823.704 184.792 824.058 185.529C824.416 186.265 824.897 186.823 825.501 187.201C826.109 187.579 826.787 187.768 827.536 187.768C827.946 187.768 828.34 187.712 828.719 187.599C829.097 187.487 829.441 187.32 829.751 187.098C830.065 186.873 830.331 186.597 830.548 186.271C830.769 185.941 830.924 185.563 831.013 185.136H832.51C832.397 185.768 832.192 186.334 831.894 186.833C831.596 187.332 831.226 187.756 830.783 188.107C830.341 188.453 829.844 188.716 829.292 188.897C828.745 189.078 828.159 189.169 827.536 189.169C826.481 189.169 825.543 188.911 824.722 188.396C823.901 187.881 823.255 187.149 822.784 186.199C822.314 185.249 822.078 184.122 822.078 182.818C822.078 181.514 822.314 180.387 822.784 179.438C823.255 178.488 823.901 177.755 824.722 177.24C825.543 176.725 826.481 176.467 827.536 176.467C828.159 176.467 828.745 176.558 829.292 176.739C829.844 176.92 830.341 177.186 830.783 177.536C831.226 177.882 831.596 178.305 831.894 178.804C832.192 179.299 832.397 179.864 832.51 180.5ZM834.736 189V179.727H836.113V181.128H836.209C836.378 180.669 836.684 180.297 837.127 180.011C837.569 179.725 838.068 179.582 838.624 179.582C838.729 179.582 838.859 179.584 839.016 179.588C839.173 179.592 839.292 179.598 839.372 179.607V181.055C839.324 181.043 839.213 181.025 839.04 181.001C838.871 180.973 838.692 180.959 838.503 180.959C838.052 180.959 837.65 181.053 837.296 181.243C836.946 181.428 836.668 181.685 836.463 182.015C836.261 182.341 836.161 182.714 836.161 183.132V189H834.736ZM844.667 189.193C843.773 189.193 843.003 188.996 842.355 188.602C841.711 188.203 841.214 187.648 840.864 186.935C840.517 186.219 840.344 185.386 840.344 184.436C840.344 183.486 840.517 182.649 840.864 181.925C841.214 181.196 841.701 180.629 842.325 180.222C842.952 179.812 843.685 179.607 844.522 179.607C845.005 179.607 845.482 179.687 845.953 179.848C846.424 180.009 846.852 180.271 847.239 180.633C847.625 180.991 847.933 181.466 848.162 182.058C848.392 182.649 848.506 183.378 848.506 184.243V184.847H841.359V183.615H847.057C847.057 183.092 846.953 182.625 846.744 182.214C846.538 181.804 846.245 181.48 845.862 181.243C845.484 181.005 845.037 180.886 844.522 180.886C843.955 180.886 843.463 181.027 843.049 181.309C842.638 181.587 842.323 181.949 842.101 182.396C841.88 182.842 841.769 183.321 841.769 183.832V184.653C841.769 185.354 841.89 185.947 842.131 186.434C842.377 186.917 842.717 187.286 843.152 187.539C843.586 187.789 844.091 187.913 844.667 187.913C845.041 187.913 845.379 187.861 845.681 187.756C845.987 187.648 846.251 187.487 846.472 187.273C846.693 187.056 846.864 186.786 846.985 186.464L848.361 186.851C848.217 187.318 847.973 187.728 847.631 188.082C847.289 188.433 846.866 188.706 846.363 188.903C845.86 189.097 845.295 189.193 844.667 189.193ZM854.561 189.193C853.668 189.193 852.897 188.996 852.249 188.602C851.605 188.203 851.108 187.648 850.758 186.935C850.412 186.219 850.239 185.386 850.239 184.436C850.239 183.486 850.412 182.649 850.758 181.925C851.108 181.196 851.595 180.629 852.219 180.222C852.847 179.812 853.579 179.607 854.417 179.607C854.899 179.607 855.376 179.687 855.847 179.848C856.318 180.009 856.747 180.271 857.133 180.633C857.519 180.991 857.827 181.466 858.057 182.058C858.286 182.649 858.401 183.378 858.401 184.243V184.847H851.253V183.615H856.952C856.952 183.092 856.847 182.625 856.638 182.214C856.433 181.804 856.139 181.48 855.757 181.243C855.378 181.005 854.932 180.886 854.417 180.886C853.849 180.886 853.358 181.027 852.943 181.309C852.533 181.587 852.217 181.949 851.996 182.396C851.774 182.842 851.664 183.321 851.664 183.832V184.653C851.664 185.354 851.784 185.947 852.026 186.434C852.271 186.917 852.611 187.286 853.046 187.539C853.481 187.789 853.986 187.913 854.561 187.913C854.936 187.913 855.274 187.861 855.576 187.756C855.881 187.648 856.145 187.487 856.366 187.273C856.588 187.056 856.759 186.786 856.88 186.464L858.256 186.851C858.111 187.318 857.868 187.728 857.526 188.082C857.183 188.433 856.761 188.706 856.258 188.903C855.755 189.097 855.189 189.193 854.561 189.193ZM852.605 178.182C852.352 178.182 852.126 178.085 851.929 177.892C851.736 177.695 851.64 177.469 851.64 177.216C851.64 176.938 851.736 176.709 851.929 176.528C852.126 176.343 852.352 176.25 852.605 176.25C852.883 176.25 853.113 176.343 853.294 176.528C853.479 176.709 853.571 176.938 853.571 177.216C853.571 177.469 853.479 177.695 853.294 177.892C853.113 178.085 852.883 178.182 852.605 178.182ZM856.083 178.182C855.829 178.182 855.604 178.085 855.407 177.892C855.213 177.695 855.117 177.469 855.117 177.216C855.117 176.938 855.213 176.709 855.407 176.528C855.604 176.343 855.829 176.25 856.083 176.25C856.36 176.25 856.59 176.343 856.771 176.528C856.956 176.709 857.049 176.938 857.049 177.216C857.049 177.469 856.956 177.695 856.771 177.892C856.59 178.085 856.36 178.182 856.083 178.182ZM864.456 189.193C863.562 189.193 862.792 188.996 862.144 188.602C861.5 188.203 861.003 187.648 860.653 186.935C860.307 186.219 860.133 185.386 860.133 184.436C860.133 183.486 860.307 182.649 860.653 181.925C861.003 181.196 861.49 180.629 862.114 180.222C862.741 179.812 863.474 179.607 864.311 179.607C864.794 179.607 865.271 179.687 865.742 179.848C866.213 180.009 866.641 180.271 867.028 180.633C867.414 180.991 867.722 181.466 867.951 182.058C868.181 182.649 868.295 183.378 868.295 184.243V184.847H861.148V183.615H866.847C866.847 183.092 866.742 182.625 866.533 182.214C866.327 181.804 866.034 181.48 865.651 181.243C865.273 181.005 864.826 180.886 864.311 180.886C863.744 180.886 863.253 181.027 862.838 181.309C862.428 181.587 862.112 181.949 861.89 182.396C861.669 182.842 861.558 183.321 861.558 183.832V184.653C861.558 185.354 861.679 185.947 861.92 186.434C862.166 186.917 862.506 187.286 862.941 187.539C863.375 187.789 863.88 187.913 864.456 187.913C864.83 187.913 865.168 187.861 865.47 187.756C865.776 187.648 866.04 187.487 866.261 187.273C866.482 187.056 866.653 186.786 866.774 186.464L868.151 186.851C868.006 187.318 867.762 187.728 867.42 188.082C867.078 188.433 866.655 188.706 866.152 188.903C865.649 189.097 865.084 189.193 864.456 189.193ZM870.463 189V179.727H871.839V181.128H871.936C872.105 180.669 872.411 180.297 872.853 180.011C873.296 179.725 873.795 179.582 874.35 179.582C874.455 179.582 874.586 179.584 874.743 179.588C874.9 179.592 875.019 179.598 875.099 179.607V181.055C875.051 181.043 874.94 181.025 874.767 181.001C874.598 180.973 874.419 180.959 874.23 180.959C873.779 180.959 873.376 181.053 873.022 181.243C872.672 181.428 872.394 181.685 872.189 182.015C871.988 182.341 871.887 182.714 871.887 183.132V189H870.463ZM888.137 181.804L886.857 182.166C886.777 181.953 886.658 181.746 886.501 181.544C886.348 181.339 886.139 181.17 885.873 181.037C885.608 180.904 885.268 180.838 884.853 180.838C884.286 180.838 883.813 180.969 883.435 181.23C883.06 181.488 882.873 181.816 882.873 182.214C882.873 182.569 883.002 182.848 883.259 183.054C883.517 183.259 883.919 183.43 884.467 183.567L885.843 183.905C886.672 184.106 887.29 184.414 887.697 184.828C888.103 185.239 888.306 185.768 888.306 186.416C888.306 186.947 888.153 187.422 887.848 187.841C887.546 188.259 887.123 188.589 886.58 188.831C886.036 189.072 885.405 189.193 884.684 189.193C883.738 189.193 882.956 188.988 882.336 188.577C881.716 188.167 881.324 187.567 881.159 186.778L882.511 186.44C882.64 186.939 882.883 187.314 883.241 187.563C883.604 187.813 884.076 187.938 884.66 187.938C885.324 187.938 885.851 187.797 886.242 187.515C886.636 187.229 886.833 186.887 886.833 186.489C886.833 186.167 886.721 185.897 886.495 185.68C886.27 185.458 885.924 185.293 885.457 185.185L883.911 184.822C883.062 184.621 882.438 184.309 882.04 183.887C881.646 183.46 881.448 182.927 881.448 182.287C881.448 181.764 881.595 181.301 881.889 180.898C882.187 180.496 882.591 180.18 883.102 179.951C883.618 179.721 884.201 179.607 884.853 179.607C885.771 179.607 886.491 179.808 887.014 180.21C887.542 180.613 887.916 181.144 888.137 181.804ZM894.218 189.193C893.349 189.193 892.6 188.988 891.972 188.577C891.344 188.167 890.861 187.601 890.523 186.881C890.185 186.161 890.016 185.338 890.016 184.412C890.016 183.47 890.189 182.639 890.535 181.919C890.886 181.194 891.373 180.629 891.996 180.222C892.624 179.812 893.357 179.607 894.194 179.607C894.846 179.607 895.433 179.727 895.957 179.969C896.48 180.21 896.908 180.548 897.242 180.983C897.577 181.418 897.784 181.925 897.864 182.504H896.44C896.331 182.082 896.089 181.707 895.715 181.381C895.345 181.051 894.846 180.886 894.218 180.886C893.663 180.886 893.176 181.031 892.757 181.321C892.343 181.607 892.019 182.011 891.785 182.534C891.556 183.054 891.441 183.663 891.441 184.364C891.441 185.08 891.554 185.704 891.779 186.235C892.008 186.766 892.33 187.179 892.745 187.473C893.164 187.766 893.655 187.913 894.218 187.913C894.588 187.913 894.924 187.849 895.226 187.72C895.528 187.591 895.784 187.406 895.993 187.165C896.202 186.923 896.351 186.634 896.44 186.295H897.864C897.784 186.843 897.585 187.336 897.267 187.775C896.953 188.209 896.536 188.555 896.017 188.813C895.502 189.066 894.902 189.193 894.218 189.193ZM901.372 183.422V189H899.947V176.636H901.372V181.176H901.492C901.71 180.697 902.036 180.317 902.47 180.035C902.909 179.749 903.493 179.607 904.221 179.607C904.853 179.607 905.406 179.733 905.881 179.987C906.356 180.236 906.725 180.621 906.986 181.14C907.252 181.655 907.385 182.311 907.385 183.108V189H905.96V183.205C905.96 182.468 905.769 181.899 905.386 181.496C905.008 181.09 904.483 180.886 903.811 180.886C903.344 180.886 902.925 180.985 902.555 181.182C902.189 181.379 901.899 181.667 901.686 182.045C901.476 182.424 901.372 182.883 901.372 183.422ZM913.879 189.193C912.985 189.193 912.215 188.996 911.567 188.602C910.923 188.203 910.426 187.648 910.076 186.935C909.729 186.219 909.556 185.386 909.556 184.436C909.556 183.486 909.729 182.649 910.076 181.925C910.426 181.196 910.913 180.629 911.536 180.222C912.164 179.812 912.897 179.607 913.734 179.607C914.217 179.607 914.694 179.687 915.165 179.848C915.636 180.009 916.064 180.271 916.451 180.633C916.837 180.991 917.145 181.466 917.374 182.058C917.604 182.649 917.718 183.378 917.718 184.243V184.847H910.571V183.615H916.269C916.269 183.092 916.165 182.625 915.955 182.214C915.75 181.804 915.456 181.48 915.074 181.243C914.696 181.005 914.249 180.886 913.734 180.886C913.166 180.886 912.675 181.027 912.261 181.309C911.85 181.587 911.534 181.949 911.313 182.396C911.092 182.842 910.981 183.321 910.981 183.832V184.653C910.981 185.354 911.102 185.947 911.343 186.434C911.589 186.917 911.929 187.286 912.364 187.539C912.798 187.789 913.303 187.913 913.879 187.913C914.253 187.913 914.591 187.861 914.893 187.756C915.199 187.648 915.462 187.487 915.684 187.273C915.905 187.056 916.076 186.786 916.197 186.464L917.573 186.851C917.428 187.318 917.185 187.728 916.843 188.082C916.501 188.433 916.078 188.706 915.575 188.903C915.072 189.097 914.507 189.193 913.879 189.193ZM919.886 189V179.727H921.262V181.176H921.383C921.576 180.681 921.888 180.297 922.318 180.023C922.749 179.745 923.266 179.607 923.87 179.607C924.482 179.607 924.991 179.745 925.397 180.023C925.808 180.297 926.128 180.681 926.357 181.176H926.454C926.691 180.697 927.047 180.317 927.522 180.035C927.997 179.749 928.567 179.607 929.231 179.607C930.06 179.607 930.738 179.866 931.265 180.385C931.792 180.9 932.056 181.703 932.056 182.794V189H930.631V182.794C930.631 182.11 930.444 181.621 930.07 181.327C929.696 181.033 929.255 180.886 928.748 180.886C928.096 180.886 927.591 181.084 927.232 181.478C926.874 181.868 926.695 182.363 926.695 182.963V189H925.246V182.649C925.246 182.122 925.075 181.697 924.733 181.375C924.391 181.049 923.95 180.886 923.411 180.886C923.041 180.886 922.695 180.985 922.373 181.182C922.055 181.379 921.797 181.653 921.6 182.003C921.407 182.349 921.31 182.75 921.31 183.205V189H919.886ZM937.39 189.217C936.802 189.217 936.269 189.107 935.79 188.885C935.311 188.66 934.931 188.336 934.649 187.913C934.367 187.487 934.226 186.972 934.226 186.368C934.226 185.837 934.331 185.406 934.54 185.076C934.749 184.742 935.029 184.48 935.379 184.291C935.729 184.102 936.116 183.961 936.538 183.869C936.965 183.772 937.394 183.696 937.824 183.639C938.388 183.567 938.845 183.512 939.195 183.476C939.549 183.436 939.806 183.37 939.967 183.277C940.132 183.184 940.215 183.023 940.215 182.794V182.746C940.215 182.15 940.052 181.687 939.726 181.357C939.404 181.027 938.915 180.862 938.259 180.862C937.579 180.862 937.045 181.011 936.659 181.309C936.273 181.607 936.001 181.925 935.844 182.263L934.492 181.78C934.733 181.216 935.055 180.778 935.458 180.464C935.864 180.146 936.307 179.924 936.786 179.8C937.269 179.671 937.744 179.607 938.211 179.607C938.508 179.607 938.851 179.643 939.237 179.715C939.627 179.784 940.004 179.926 940.366 180.144C940.732 180.361 941.036 180.689 941.277 181.128C941.519 181.567 941.64 182.154 941.64 182.891V189H940.215V187.744H940.142C940.046 187.946 939.885 188.161 939.659 188.39C939.434 188.62 939.134 188.815 938.76 188.976C938.386 189.137 937.929 189.217 937.39 189.217ZM937.607 187.938C938.17 187.938 938.645 187.827 939.032 187.605C939.422 187.384 939.716 187.098 939.913 186.748C940.114 186.398 940.215 186.03 940.215 185.643V184.339C940.155 184.412 940.022 184.478 939.816 184.539C939.615 184.595 939.382 184.645 939.116 184.69C938.855 184.73 938.599 184.766 938.349 184.798C938.104 184.826 937.905 184.851 937.752 184.871C937.382 184.919 937.035 184.998 936.713 185.106C936.396 185.211 936.138 185.37 935.941 185.583C935.748 185.792 935.651 186.078 935.651 186.44C935.651 186.935 935.834 187.31 936.2 187.563C936.571 187.813 937.039 187.938 937.607 187.938Z" fill="black"/>
<path d="M361.625 144.125H370.125V146.25H361.625V144.125ZM361.625 142H370.125V139.875H361.625V142ZM380.75 112.25V159H338.25V112.25H344.625C347.239 112.25 349.26 109.947 351 108H368C369.742 109.947 371.763 112.25 374.375 112.25H380.75ZM357.375 114.375C357.375 115.548 358.327 116.5 359.5 116.5C360.675 116.5 361.625 115.548 361.625 114.375C361.625 113.202 360.675 112.25 359.5 112.25C358.327 112.25 357.375 113.202 357.375 114.375ZM376.5 116.5H368L363.75 120.75H355.469L351 116.5H342.5V154.75H376.5V116.5ZM361.625 135.625H370.125V133.5H361.625V135.625ZM361.625 131.375H370.125V129.25H361.625V131.375ZM347.812 131.539L348.633 130.784C349.587 131.247 350.195 131.598 351.27 132.367C353.293 130.07 354.627 128.91 357.109 127.363L357.375 127.975C355.329 129.762 353.828 131.751 351.667 135.625C350.337 134.057 349.449 133.058 347.812 131.539ZM348.021 142.164L348.841 141.409C349.795 141.873 350.403 142.223 351.478 142.992C353.501 140.695 354.836 139.535 357.318 137.988L357.583 138.602C355.537 140.389 354.037 142.378 351.875 146.252C350.543 144.682 349.655 143.683 348.021 142.164Z" fill="black"/>
<g clip-path="url(#clip1_467_3)">
<path d="M623.167 141.75L614 132.477L616.565 129.974L623.117 136.512L635.166 124.25L637.833 126.705L623.167 141.75ZM643.333 115.5V150.5H606.667V115.5H643.333ZM647 112H603V154H647V112Z" fill="black"/>
</g>
<path d="M894.782 142.35C894.782 141.158 893.587 140.1 892.24 140.1H882.76C881.413 140.1 880.218 141.158 880.218 142.35V147.75C880.218 148.943 881.413 150 882.76 150H892.24C893.587 150 894.782 148.943 894.782 147.75V142.35ZM876.647 142.35C876.647 141.158 875.453 140.1 874.106 140.1H864.625C863.278 140.1 862.083 141.158 862.083 142.35V147.75C862.083 148.943 863.278 150 864.625 150H874.106C875.453 150 876.647 148.943 876.647 147.75V142.35ZM912.917 142.35C912.917 141.158 911.722 140.1 910.375 140.1H900.895C899.548 140.1 898.353 141.158 898.353 142.35V147.75C898.353 148.943 899.548 150 900.895 150H910.375C911.722 150 912.917 148.943 912.917 147.75V142.35ZM884.031 143.475H890.97V146.625H884.031V143.475ZM865.896 143.475H872.835V146.625H865.896V143.475ZM902.166 143.475H909.104V146.625H902.166V143.475ZM894.782 129.3C894.782 128.108 893.587 127.05 892.24 127.05H882.76C881.413 127.05 880.218 128.108 880.218 129.3V134.7C880.218 135.892 881.413 136.95 882.76 136.95H892.24C893.587 136.95 894.782 135.892 894.782 134.7V129.3ZM876.647 129.3C876.647 128.108 875.453 127.05 874.106 127.05H864.625C863.278 127.05 862.083 128.108 862.083 129.3V134.7C862.083 135.892 863.278 136.95 864.625 136.95H874.106C875.453 136.95 876.647 135.892 876.647 134.7V129.3ZM912.917 129.3C912.917 128.108 911.722 127.05 910.375 127.05H900.895C899.548 127.05 898.353 128.108 898.353 129.3V134.7C898.353 135.892 899.548 136.95 900.895 136.95H910.375C911.722 136.95 912.917 135.892 912.917 134.7V129.3ZM884.031 130.425H890.97V133.575H884.031V130.425ZM865.896 130.425H872.835V133.575H865.896V130.425ZM902.166 130.425H909.104V133.575H902.166V130.425ZM894.782 116.25C894.782 115.058 893.587 114 892.24 114H882.76C881.413 114 880.218 115.058 880.218 116.25V121.65C880.218 122.842 881.413 123.9 882.76 123.9H892.24C893.587 123.9 894.782 122.842 894.782 121.65V116.25ZM876.647 116.25C876.647 115.058 875.453 114 874.106 114H864.625C863.278 114 862.083 115.058 862.083 116.25V121.65C862.083 122.842 863.278 123.9 864.625 123.9H874.106C875.453 123.9 876.647 122.842 876.647 121.65V116.25ZM912.917 116.25C912.917 115.058 911.722 114 910.375 114H900.895C899.548 114 898.353 115.058 898.353 116.25V121.65C898.353 122.842 899.548 123.9 900.895 123.9H910.375C911.722 123.9 912.917 122.842 912.917 121.65V116.25ZM884.031 117.375H890.97V120.525H884.031V117.375ZM865.896 117.375H872.835V120.525H865.896V117.375ZM902.166 117.375H909.104V120.525H902.166V117.375Z" fill="black"/>
<defs>
<linearGradient id="paint0_linear_467_3" x1="103.5" y1="23" x2="103.5" y2="79" gradientUnits="userSpaceOnUse">
<stop stop-color="#38B6FF"/>
<stop offset="1" stop-color="#5271FF"/>
</linearGradient>
<linearGradient id="paint1_linear_467_3" x1="361.5" y1="19" x2="361.5" y2="75" gradientUnits="userSpaceOnUse">
<stop stop-color="#38B6FF"/>
<stop offset="1" stop-color="#5271FF"/>
</linearGradient>
<linearGradient id="paint2_linear_467_3" x1="887.51" y1="16" x2="887.51" y2="72" gradientUnits="userSpaceOnUse">
<stop stop-color="#38B6FF"/>
<stop offset="1" stop-color="#5271FF"/>
</linearGradient>
<linearGradient id="paint3_linear_467_3" x1="624.51" y1="19" x2="624.51" y2="75" gradientUnits="userSpaceOnUse">
<stop stop-color="#38B6FF"/>
<stop offset="1" stop-color="#5271FF"/>
</linearGradient>
<clipPath id="clip0_467_3">
<rect width="48" height="47" fill="white" transform="translate(79 112)"/>
</clipPath>
<clipPath id="clip1_467_3">
<rect width="44" height="42" fill="white" transform="translate(603 112)"/>
</clipPath>
</defs>
</svg>
